<?xml version="1.0" encoding="UTF-8" standalone="no"?>
<!-- Created with Inkscape (http://www.inkscape.org/) -->

<svg
   xmlns:dc="http://purl.org/dc/elements/1.1/"
   xmlns:cc="http://creativecommons.org/ns#"
   xmlns:rdf="http://www.w3.org/1999/02/22-rdf-syntax-ns#"
   xmlns:svg="http://www.w3.org/2000/svg"
   xmlns="http://www.w3.org/2000/svg"
   xmlns:sodipodi="http://sodipodi.sourceforge.net/DTD/sodipodi-0.dtd"
   xmlns:inkscape="http://www.inkscape.org/namespaces/inkscape"
   width="496.14999"
   height="312.81747"
   id="svg2983"
   version="1.1"
   inkscape:version="0.48.4 r9939"
   sodipodi:docname="New document 1">
  <defs
     id="defs2985" />
  <sodipodi:namedview
     id="base"
     pagecolor="#ffffff"
     bordercolor="#666666"
     borderopacity="1.0"
     inkscape:pageopacity="0.0"
     inkscape:pageshadow="2"
     inkscape:zoom="0.35"
     inkscape:cx="-48.671105"
     inkscape:cy="133.62037"
     inkscape:document-units="px"
     inkscape:current-layer="layer1"
     showgrid="false"
     fit-margin-top="0"
     fit-margin-left="0"
     fit-margin-right="0"
     fit-margin-bottom="0"
     inkscape:window-width="1330"
     inkscape:window-height="747"
     inkscape:window-x="36"
     inkscape:window-y="21"
     inkscape:window-maximized="1" />
  <metadata
     id="metadata2988">
    <rdf:RDF>
      <cc:Work
         rdf:about="">
        <dc:format>image/svg+xml</dc:format>
        <dc:type
           rdf:resource="http://purl.org/dc/dcmitype/StillImage" />
        <dc:title></dc:title>
      </cc:Work>
    </rdf:RDF>
  </metadata>
  <g
     inkscape:label="Layer 1"
     inkscape:groupmode="layer"
     id="layer1"
     transform="translate(-423.67111,-353.16509)">
    <path
       style="fill:#000000"
       d="m 887.42857,664.43218 c -2.475,-0.78846 -7.65,-3.6749 -11.5,-6.41431 -11.8716,-8.44706 -30.2731,-20.11835 -45,-28.54158 -11.9672,-6.84481 -28.7137,-17.84476 -33.3143,-21.88248 -1.8244,-1.60119 -7.8175,-8.94292 -13.3181,-16.31497 l -10.0011,-13.40372 -3.8278,4.34867 c -4.6149,5.24272 -11.1308,8.92514 -22.7311,12.8463 -12.6988,4.29245 -19.7992,4.10185 -29.4549,-0.79067 -9.1397,-4.6311 -17.9751,-13.29425 -25.5773,-25.07862 -11.9089,-18.4603 -14.0249,-26.82487 -8.1696,-32.29454 1.7081,-1.59567 3.7331,-2.90121 4.5,-2.90121 0.7668,0 1.3942,-0.65934 1.3942,-1.4652 0,-0.80587 1.3704,-3.02595 3.0452,-4.93352 2.9391,-3.34737 11.3291,-6.99087 17.9548,-7.79708 2.3097,-0.28104 2.4756,-0.64873 2.179,-4.82906 -0.2388,-3.36526 0.1941,-5.17971 1.689,-7.08017 l 2.01,-2.55531 -3.9164,-5.89749 c -2.154,-3.24362 -6.0641,-7.44405 -8.689,-9.33429 -2.6249,-1.89024 -8.8226,-7.10639 -13.7726,-11.59145 -4.95,-4.48507 -12.4781,-10.74385 -16.7292,-13.90842 -8.0415,-5.98631 -14.1782,-12.27916 -18.6338,-19.10801 -11.3619,-17.41353 -33.9925,-43.71549 -48.6136,-56.5 -11.4194,-9.98506 -12.5234,-10.72765 -12.5234,-8.42367 0,4.42877 -15.9574,39.35967 -23.08,50.52236 -1.6139,2.52929 -4.3251,8.82929 -6.0249,14 -3.5757,10.87687 -10.2652,25.06953 -15.994,33.93303 -6.7154,10.39006 -12.4032,21.08129 -20.7315,38.96828 -3.201,6.875 -10.0239,19.025 -15.1621,27 -10.3278,16.02978 -13.118,21.60704 -20.0115,40 l -4.6848,12.5 11.0944,1.17956 c 13.1703,1.40028 36.1312,4.27342 39.4305,4.93403 6.8047,1.36246 9.6753,10.96594 4.75,15.8912 -3.3638,3.36382 -6.2617,3.85016 -15.7985,2.65134 -4.5582,-0.57299 -15.0376,-1.74212 -23.2876,-2.59807 -33.2076,-3.44532 -35.2871,-3.9293 -39.4117,-9.17294 -2.8816,-3.66332 -2.7214,-9.17303 0.4003,-13.77317 1.3687,-2.01693 3.1687,-4.98233 3.9999,-6.58978 2.1042,-4.06899 8.8012,-22.73701 7.7194,-21.51796 -3.4175,3.8512 -11.4828,17.99255 -20.0996,35.24184 l -10.1139,20.24604 12.2528,5.83813 c 6.739,3.21097 17.2028,7.76875 23.2528,10.1284 17.835,6.95608 17.485,6.76118 19.1045,10.63732 1.1758,2.81403 1.2598,4.2853 0.3942,6.90791 -2.0406,6.1832 -7.7997,7.91074 -16.9987,5.0991 -5.2363,-1.60044 -30.5597,-12.33003 -33.5,-14.19405 -1.1,-0.69734 -5.825,-2.94081 -10.5,-4.98547 -12.7386,-5.57136 -15.71,-7.72332 -17.1082,-12.39015 -1.1057,-3.69054 -0.9705,-4.44222 1.7565,-9.76579 1.6249,-3.17212 8.1448,-15.89249 14.4887,-28.26749 6.3438,-12.375 13.8381,-25.94677 16.654,-30.15949 6.1766,-9.24059 12.6234,-19.76218 13.4207,-21.90338 1.2872,-3.45712 12.8997,-19.87943 15.5037,-21.92525 3.8129,-2.99569 12.0343,-16.09507 19.1678,-30.54071 5.2771,-10.68653 7.078,-13.23597 16.138,-22.84649 10.7465,-11.3994 15.6245,-19.59278 17.9973,-30.2296 1.6861,-7.55831 9.9019,-30.98656 13.9936,-39.90429 2.0212,-4.40506 5.6931,-11.38007 8.1598,-15.5 2.4667,-4.11993 5.0742,-8.97121 5.7944,-10.78062 1.6365,-4.11193 4.554,-6.21017 8.6349,-6.21017 2.5719,0 3.3888,-0.56165 4.4128,-3.03389 2.7551,-6.65139 8.8554,-8.61029 15.7758,-5.06593 6.5205,3.33952 33.3939,26.36065 39.5656,33.89387 2.1204,2.58827 8.2876,9.65595 13.7047,15.70595 5.4171,6.05 11.2329,13.025 12.9239,15.5 1.6911,2.475 5.5483,8.16798 8.5717,12.65106 5.1703,7.6666 11.3718,13.83744 19.4443,19.34838 1.925,1.31416 7.8233,6.23939 13.1073,10.94497 5.284,4.70557 12.0844,10.41766 15.1119,12.69353 3.6012,2.70703 7.4552,7.0694 11.1453,12.61526 l 5.6406,8.47732 4.2475,-0.79882 c 6.0281,-1.13371 8.629,-0.26988 13.7474,4.56587 5.0828,4.80215 15.5814,11.99837 27.6917,18.98125 4.5054,2.59785 12.1031,8.07441 16.8837,12.17013 4.7805,4.09572 10.3193,8.29433 12.3082,9.33024 6.6423,3.45942 19.7008,13.39423 35.2319,26.80403 8.4615,7.30578 19.759,16.19328 25.1055,19.75 l 9.721,6.46678 13.779,0.0564 c 16.3674,0.067 20.021,1.03401 22.6837,6.00355 2.2632,4.22392 1.6608,7.96547 -1.8475,11.47376 -2.3417,2.34165 -2.5252,2.35913 -21.8336,2.07936 -21.9494,-0.31802 -18.5122,0.72874 -35.4227,-10.78783 -5.3905,-3.6711 -16.8545,-12.74974 -25.4756,-20.17476 -15.1365,-13.03642 -26.4076,-21.49471 -35.8253,-26.88469 -2.475,-1.41651 -5.5909,-3.74329 -6.9243,-5.17063 -3.003,-3.21457 -4.0757,-3.27889 -4.0757,-0.24438 0,1.29292 -0.4865,3.7464 -1.0811,5.45218 -0.9951,2.85434 -0.8089,3.37368 2.3368,6.51941 1.8799,1.8799 7.9666,9.43892 13.526,16.79782 11.3715,15.05244 16.7691,19.47086 38.925,31.86368 6.4863,3.62813 14.0433,8.20247 16.7933,10.16521 2.75,1.96273 8.375,5.51509 12.5,7.89413 4.125,2.37904 10.7442,6.72174 14.7093,9.65045 9.0072,6.65279 9.8607,6.96682 21.374,7.86355 5.2917,0.41216 10.3802,1.36274 11.6162,2.17002 5.0311,3.28608 4.8932,12.34393 -0.2391,15.70679 -3.1462,2.06142 -21.9822,2.05687 -28.4604,-0.007 z m -144,-145.86811 c 0,-0.24254 -0.45,-0.7191 -1,-1.05902 -0.55,-0.33992 -1,-0.14148 -1,0.44098 0,0.58246 0.45,1.05902 1,1.05902 0.55,0 1,-0.19844 1,-0.44098 z"
       id="path3002"
       inkscape:connector-curvature="0" />
  </g>
</svg>
