<?xml version="1.0" encoding="UTF-8" standalone="no"?>
<!-- Created with Inkscape (http://www.inkscape.org/) -->

<svg
   xmlns:dc="http://purl.org/dc/elements/1.1/"
   xmlns:cc="http://creativecommons.org/ns#"
   xmlns:rdf="http://www.w3.org/1999/02/22-rdf-syntax-ns#"
   xmlns:svg="http://www.w3.org/2000/svg"
   xmlns="http://www.w3.org/2000/svg"
   xmlns:xlink="http://www.w3.org/1999/xlink"
   xmlns:sodipodi="http://sodipodi.sourceforge.net/DTD/sodipodi-0.dtd"
   xmlns:inkscape="http://www.inkscape.org/namespaces/inkscape"
   width="425.19684"
   height="600.87201"
   id="svg2"
   version="1.1"
   inkscape:version="0.48.4 r9939"
   sodipodi:docname="asana_01.svg"
   inkscape:export-filename="/home/maurizio/Git/Appunti/figures/exercises/pagina01.png"
   inkscape:export-xdpi="499.93179"
   inkscape:export-ydpi="499.93179">
  <defs
     id="defs4" />
  <sodipodi:namedview
     id="base"
     pagecolor="#ffffff"
     bordercolor="#666666"
     borderopacity="1.0"
     inkscape:pageopacity="0.0"
     inkscape:pageshadow="2"
     inkscape:zoom="2.0104116"
     inkscape:cx="156.51532"
     inkscape:cy="486.25835"
     inkscape:document-units="px"
     inkscape:current-layer="layer1"
     showgrid="false"
     fit-margin-top="0"
     fit-margin-left="0"
     fit-margin-right="0"
     fit-margin-bottom="0"
     units="px"
     inkscape:window-width="1330"
     inkscape:window-height="747"
     inkscape:window-x="36"
     inkscape:window-y="21"
     inkscape:window-maximized="1" />
  <metadata
     id="metadata7">
    <rdf:RDF>
      <cc:Work
         rdf:about="">
        <dc:format>image/svg+xml</dc:format>
        <dc:type
           rdf:resource="http://purl.org/dc/dcmitype/StillImage" />
        <dc:title></dc:title>
      </cc:Work>
    </rdf:RDF>
  </metadata>
  <g
     inkscape:label="Layer 1"
     inkscape:groupmode="layer"
     id="layer1"
     transform="translate(-50.24512,-1247.2934)">
    <rect
       y="1247.2933"
       x="50.245121"
       height="150.06947"
       width="212.59842"
       id="rect3037"
       style="fill:#ffffff;fill-rule:evenodd;stroke:none" />
    <rect
       style="fill:#f2f2f2;fill-rule:evenodd;stroke:none"
       id="rect3039"
       width="212.59842"
       height="25.011581"
       x="50.245121"
       y="1372.3513" />
    <rect
       transform="matrix(0,1,-1,0,0,0)"
       y="-262.84354"
       x="1247.2933"
       height="5.002316"
       width="150.06947"
       id="rect3041"
       style="fill:#f2f2f2;fill-rule:evenodd;stroke:none" />
    <text
       sodipodi:linespacing="125%"
       id="text3043"
       y="1393.7184"
       x="55.649727"
       style="font-size:31.82134819px;font-style:normal;font-weight:normal;line-height:125%;letter-spacing:0px;word-spacing:0px;fill:#000000;fill-opacity:1;stroke:none;font-family:gara;-inkscape-font-specification:gara"
       xml:space="preserve"><tspan
         style="font-size:19.09280968px;font-style:normal;font-variant:normal;font-weight:normal;font-stretch:normal;font-family:Simoncini Garamond Std;-inkscape-font-specification:Simoncini Garamond Std"
         y="1393.7184"
         x="55.649727"
         id="tspan3045"
         sodipodi:role="line">a. tadasana</tspan></text>
    <rect
       style="fill:#ffffff;fill-rule:evenodd;stroke:none"
       id="rect3137"
       width="212.59842"
       height="150.06947"
       x="50.245121"
       y="1397.3628" />
    <rect
       y="1522.4208"
       x="50.245121"
       height="25.011581"
       width="212.59842"
       id="rect3139"
       style="fill:#f2f2f2;fill-rule:evenodd;stroke:none" />
    <rect
       style="fill:#f2f2f2;fill-rule:evenodd;stroke:none"
       id="rect3141"
       width="150.06947"
       height="5.002316"
       x="1397.3628"
       y="-262.84354"
       transform="matrix(0,1,-1,0,0,0)" />
    <text
       xml:space="preserve"
       style="font-size:31.82134819px;font-style:normal;font-weight:normal;line-height:125%;letter-spacing:0px;word-spacing:0px;fill:#000000;fill-opacity:1;stroke:none;font-family:gara;-inkscape-font-specification:gara"
       x="55.649727"
       y="1543.7878"
       id="text3143"
       sodipodi:linespacing="125%"><tspan
         sodipodi:role="line"
         id="tspan3145"
         x="55.649727"
         y="1543.7878"
         style="font-size:19.09280968px;font-style:normal;font-variant:normal;font-weight:normal;font-stretch:normal;font-family:Simoncini Garamond Std;-inkscape-font-specification:Simoncini Garamond Std">c. burpees</tspan></text>
    <g
       inkscape:tile-y0="972.90347"
       inkscape:tile-x0="13.879642"
       id="use3051"
       transform="matrix(0.70588238,0,0,0.70588238,53.097295,882.03612)">
      <rect
         y="942.64459"
         x="-4.0405812"
         height="212.59842"
         width="301.18109"
         id="rect3149"
         style="fill:#ffffff;fill-rule:evenodd;stroke:none" />
      <rect
         style="fill:#f2f2f2;fill-rule:evenodd;stroke:none"
         id="rect3151"
         width="301.18109"
         height="35.433071"
         x="-4.0405812"
         y="1119.8099" />
      <rect
         transform="matrix(0,1,-1,0,0,0)"
         y="-297.1405"
         x="942.64459"
         height="7.0866141"
         width="212.59842"
         id="rect3153"
         style="fill:#f2f2f2;fill-rule:evenodd;stroke:none" />
      <text
         sodipodi:linespacing="125%"
         id="text3155"
         y="1150.08"
         x="3.6159439"
         style="font-size:45.08024216px;font-style:normal;font-weight:normal;line-height:125%;letter-spacing:0px;word-spacing:0px;fill:#000000;fill-opacity:1;stroke:none;font-family:gara;-inkscape-font-specification:gara"
         xml:space="preserve"><tspan
           style="font-size:27.04814529px;font-style:normal;font-variant:normal;font-weight:normal;font-stretch:normal;font-family:Simoncini Garamond Std;-inkscape-font-specification:Simoncini Garamond Std"
           y="1150.08"
           x="3.6159439"
           id="tspan3157"
           sodipodi:role="line">e. jumping jack</tspan></text>
    </g>
    <g
       inkscape:tile-y0="972.90347"
       inkscape:tile-x0="13.879642"
       id="use3053"
       transform="matrix(0.70588238,0,0,0.70588238,53.097295,1032.1056)">
      <rect
         y="942.64459"
         x="-4.0405812"
         height="212.59842"
         width="301.18109"
         id="rect3185"
         style="fill:#ffffff;fill-rule:evenodd;stroke:none" />
      <rect
         style="fill:#f2f2f2;fill-rule:evenodd;stroke:none"
         id="rect3187"
         width="301.18109"
         height="35.433071"
         x="-4.0405812"
         y="1119.8099" />
      <rect
         transform="matrix(0,1,-1,0,0,0)"
         y="-297.1405"
         x="942.64459"
         height="7.0866141"
         width="212.59842"
         id="rect3189"
         style="fill:#f2f2f2;fill-rule:evenodd;stroke:none" />
      <text
         sodipodi:linespacing="125%"
         id="text3191"
         y="1150.08"
         x="3.6159439"
         style="font-size:45.08024216px;font-style:normal;font-weight:normal;line-height:125%;letter-spacing:0px;word-spacing:0px;fill:#000000;fill-opacity:1;stroke:none;font-family:gara;-inkscape-font-specification:gara"
         xml:space="preserve"><tspan
           style="font-size:27.04814529px;font-style:normal;font-variant:normal;font-weight:normal;font-stretch:normal;font-family:Simoncini Garamond Std;-inkscape-font-specification:Simoncini Garamond Std"
           y="1150.08"
           x="3.6159439"
           id="tspan3193"
           sodipodi:role="line">g. superman</tspan></text>
    </g>
    <rect
       style="fill:#ffffff;fill-rule:evenodd;stroke:none"
       id="rect3113"
       width="212.59842"
       height="150.06947"
       x="262.84354"
       y="1247.2933" />
    <rect
       y="1372.3513"
       x="262.84354"
       height="25.011581"
       width="212.59842"
       id="rect3115"
       style="fill:#f2f2f2;fill-rule:evenodd;stroke:none" />
    <rect
       style="fill:#f2f2f2;fill-rule:evenodd;stroke:none"
       id="rect3117"
       width="150.06947"
       height="5.002316"
       x="1247.2933"
       y="-475.44196"
       transform="matrix(0,1,-1,0,0,0)" />
    <text
       xml:space="preserve"
       style="font-size:31.82134819px;font-style:normal;font-weight:normal;line-height:125%;letter-spacing:0px;word-spacing:0px;fill:#000000;fill-opacity:1;stroke:none;font-family:gara;-inkscape-font-specification:gara"
       x="268.24814"
       y="1393.7184"
       id="text3119"
       sodipodi:linespacing="125%"><tspan
         sodipodi:role="line"
         id="tspan3121"
         x="268.24814"
         y="1393.7184"
         style="font-size:19.09280968px;font-style:normal;font-variant:normal;font-weight:normal;font-stretch:normal;font-family:Simoncini Garamond Std;-inkscape-font-specification:Simoncini Garamond Std">b. sanasana</tspan></text>
    <g
       inkscape:tile-y0="972.90347"
       inkscape:tile-x0="13.879642"
       id="use3057"
       transform="matrix(0.70588238,0,0,0.70588238,265.69572,731.96664)">
      <rect
         y="942.64459"
         x="-4.0405812"
         height="212.59842"
         width="301.18109"
         id="rect3125"
         style="fill:#ffffff;fill-rule:evenodd;stroke:none" />
      <rect
         style="fill:#f2f2f2;fill-rule:evenodd;stroke:none"
         id="rect3127"
         width="301.18109"
         height="35.433071"
         x="-4.0405812"
         y="1119.8099" />
      <rect
         transform="matrix(0,1,-1,0,0,0)"
         y="-297.1405"
         x="942.64459"
         height="7.0866141"
         width="212.59842"
         id="rect3129"
         style="fill:#f2f2f2;fill-rule:evenodd;stroke:none" />
      <text
         sodipodi:linespacing="125%"
         id="text3131"
         y="1150.08"
         x="3.6159439"
         style="font-size:45.08024216px;font-style:normal;font-weight:normal;line-height:125%;letter-spacing:0px;word-spacing:0px;fill:#000000;fill-opacity:1;stroke:none;font-family:gara;-inkscape-font-specification:gara"
         xml:space="preserve"><tspan
           style="font-size:27.04814529px;font-style:normal;font-variant:normal;font-weight:normal;font-stretch:normal;font-family:Simoncini Garamond Std;-inkscape-font-specification:Simoncini Garamond Std"
           y="1150.08"
           x="3.6159439"
           id="tspan3133"
           sodipodi:role="line">d. flessioni</tspan></text>
    </g>
    <g
       inkscape:tile-y0="972.90347"
       inkscape:tile-x0="13.879642"
       id="use3059"
       transform="matrix(0.70588238,0,0,0.70588238,265.69572,882.03612)">
      <rect
         y="942.64459"
         x="-4.0405812"
         height="212.59842"
         width="301.18109"
         id="rect3161"
         style="fill:#ffffff;fill-rule:evenodd;stroke:none" />
      <rect
         style="fill:#f2f2f2;fill-rule:evenodd;stroke:none"
         id="rect3163"
         width="301.18109"
         height="35.433071"
         x="-4.0405812"
         y="1119.8099" />
      <rect
         transform="matrix(0,1,-1,0,0,0)"
         y="-297.1405"
         x="942.64459"
         height="7.0866141"
         width="212.59842"
         id="rect3165"
         style="fill:#f2f2f2;fill-rule:evenodd;stroke:none" />
      <text
         sodipodi:linespacing="125%"
         id="text3167"
         y="1150.08"
         x="3.6159439"
         style="font-size:45.08024216px;font-style:normal;font-weight:normal;line-height:125%;letter-spacing:0px;word-spacing:0px;fill:#000000;fill-opacity:1;stroke:none;font-family:gara;-inkscape-font-specification:gara"
         xml:space="preserve"><tspan
           style="font-size:27.04814529px;font-style:normal;font-variant:normal;font-weight:normal;font-stretch:normal;font-family:Simoncini Garamond Std;-inkscape-font-specification:Simoncini Garamond Std"
           y="1150.08"
           x="3.6159439"
           id="tspan3169"
           sodipodi:role="line">f. plank</tspan></text>
    </g>
    <g
       inkscape:tile-y0="972.90347"
       inkscape:tile-x0="13.879642"
       id="use3061"
       transform="matrix(0.70588238,0,0,0.70588238,265.69572,1032.1056)">
      <rect
         y="942.64459"
         x="-4.0405812"
         height="212.59842"
         width="301.18109"
         id="rect3173"
         style="fill:#ffffff;fill-rule:evenodd;stroke:none" />
      <rect
         style="fill:#f2f2f2;fill-rule:evenodd;stroke:none"
         id="rect3175"
         width="301.18109"
         height="35.433071"
         x="-4.0405812"
         y="1119.8099" />
      <rect
         transform="matrix(0,1,-1,0,0,0)"
         y="-297.1405"
         x="942.64459"
         height="7.0866141"
         width="212.59842"
         id="rect3177"
         style="fill:#f2f2f2;fill-rule:evenodd;stroke:none" />
      <text
         sodipodi:linespacing="125%"
         id="text3179"
         y="1150.08"
         x="3.6159439"
         style="font-size:45.08024216px;font-style:normal;font-weight:normal;line-height:125%;letter-spacing:0px;word-spacing:0px;fill:#000000;fill-opacity:1;stroke:none;font-family:gara;-inkscape-font-specification:gara"
         xml:space="preserve"><tspan
           style="font-size:27.04814529px;font-style:normal;font-variant:normal;font-weight:normal;font-stretch:normal;font-family:Simoncini Garamond Std;-inkscape-font-specification:Simoncini Garamond Std"
           y="1150.08"
           x="3.6159439"
           id="tspan3181"
           sodipodi:role="line">h. teaser</tspan></text>
    </g>
    <g
       id="layer8"
       inkscape:label="Front"
       style="display:inline"
       transform="matrix(0.06522078,0,0,0.06522078,68.78726,1247.3869)">
      <path
         style="color:#000000;fill:#e6b39d;fill-opacity:1;fill-rule:nonzero;stroke:#e6b39d;stroke-width:7.59645081;stroke-linecap:butt;stroke-linejoin:miter;stroke-miterlimit:4;stroke-opacity:1;stroke-dasharray:none;stroke-dashoffset:0;marker:none;visibility:visible;display:inline;overflow:visible;enable-background:accumulate"
         d="m 1156.9688,12 c -11.2998,0.201759 -36.8973,3.038484 -60.9376,22.375 -17.289,13.906329 -25.1786,41.988501 -26.0624,55.6875 -0.8839,13.699 9.2812,47.28125 9.2812,47.28125 0,0 -27.8516,-32.71845 -20.7812,1.75 7.0705,34.46845 14.1391,53.46435 19,53.90625 4.8608,0.44191 5.2948,0.44716 7.0624,5.75 1.7669,5.30056 28.4888,79.03447 77.5,78.65625 0.021,1.9e-4 0.042,-1.6e-4 0.063,0 49.0111,0.37822 75.6706,-73.35569 77.4374,-78.65625 1.7677,-5.30284 2.2017,-5.30809 7.0626,-5.75 4.8608,-0.4419 11.9607,-19.4378 19.0312,-53.90625 7.0704,-34.46845 -20.7812,-1.75 -20.7812,-1.75 0,0 10.165,-33.58225 9.2812,-47.28125 -0.8838,-13.698999 -8.5163,-42.106907 -26.0625,-55.6875 -31.8974,-24.6883674 -65.4687,-22.25 -65.4687,-22.25 -0.3943,-0.03625 -2.2437,-0.185374 -5.625,-0.125 z"
         id="path4458"
         inkscape:connector-curvature="0" />
      <path
         style="color:#000000;fill:#000000;fill-opacity:1;fill-rule:nonzero;stroke:#ffffff;stroke-width:7.08661413;stroke-linecap:butt;stroke-linejoin:miter;stroke-miterlimit:4;stroke-opacity:1;stroke-dasharray:none;stroke-dashoffset:0;marker:none;visibility:visible;display:inline;overflow:visible;enable-background:accumulate"
         d="m 1368.6306,315.2303 c 15.3604,-0.37192 33.7471,-30.30986 59.9948,88.42979 26.2477,118.73964 37.4967,218.73092 37.4967,218.73092 0,0 2.4998,38.74662 -31.2473,44.99607 -33.747,6.24946 -42.4962,9.99913 -51.2455,-21.24814 -8.7492,-31.24728 -22.498,-92.49194 -23.7479,-109.99041 -1.2499,-17.49847 -22.4981,-154.98649 -22.4981,-159.98605 0,-4.99956 -2.0941,-60.12488 31.2473,-60.93218 z"
         id="path4661"
         inkscape:connector-curvature="0"
         sodipodi:nodetypes="sscsssss" />
      <path
         sodipodi:nodetypes="sscsssss"
         inkscape:connector-curvature="0"
         id="path4753"
         d="m 969.3009,312.23074 c -15.3604,-0.37192 -33.7471,-30.30986 -59.9948,88.42979 -26.2477,118.73964 -37.4967,218.73092 -37.4967,218.73092 0,0 -2.4998,38.74662 31.2473,44.99607 33.747,6.24946 42.4962,9.99913 51.2455,-21.24814 8.7492,-31.24728 22.498,-92.49194 23.7479,-109.99041 1.2499,-17.49847 22.4981,-154.98649 22.4981,-159.98605 0,-4.99956 2.0941,-60.12488 -31.2473,-60.93218 z"
         style="color:#000000;fill:#000000;fill-opacity:1;fill-rule:nonzero;stroke:#ffffff;stroke-width:7.08661413;stroke-linecap:butt;stroke-linejoin:miter;stroke-miterlimit:4;stroke-opacity:1;stroke-dasharray:none;stroke-dashoffset:0;marker:none;visibility:visible;display:inline;overflow:visible;enable-background:accumulate" />
      <path
         style="color:#000000;fill:#000000;fill-opacity:1;fill-rule:nonzero;stroke:#ffffff;stroke-width:7.08661413;stroke-linecap:butt;stroke-linejoin:miter;stroke-miterlimit:4;stroke-opacity:1;stroke-dasharray:none;stroke-dashoffset:0;marker:none;visibility:visible;display:inline;overflow:visible;enable-background:accumulate"
         d="m 1161.3754,281.28125 c -81.6002,0.40416 -71.9776,28.62516 -169.46915,30.5 -47.50354,0.91353 -72.4981,8.13165 -51.25,84.375 21.2482,76.24335 59.99965,247.47136 56.25,277.46875 -3.7496,29.99738 -24.99896,158.74487 -18.74956,192.49193 6.22965,33.63985 145.90351,152.27827 188.15581,154.41427 l 0,0.031 c 0.061,0 0.1261,0 0.1875,0 0.072,0 0.1476,0 0.2188,0 l 0,-0.031 c 42.2522,-2.136 184.4259,-123.2742 190.6555,-156.91405 6.2494,-33.74706 -17.4997,-159.99477 -21.2493,-189.99215 -3.7497,-29.99739 35.0018,-201.2254 56.25,-277.46875 21.2481,-76.24335 -3.7473,-85.33142 -51.25,-84.375 -134.3444,-3.98898 -98.1493,-30.90416 -179.7496,-30.5 z"
         id="path4688"
         inkscape:connector-curvature="0"
         sodipodi:nodetypes="zsssscccccssscz" />
      <g
         id="g4804">
        <path
           sodipodi:nodetypes="cssccc"
           inkscape:connector-curvature="0"
           id="path4759"
           d="m 1361.0618,1182.4321 c -10.6056,77.7749 -7.0704,176.7613 -35.3522,176.7613 -28.2818,0 -65.4017,8.838 -88.3807,-42.4227 -22.9789,-51.2608 -65.5561,-277.541 -66.181,-286.9152 25.6227,-61.86962 68.744,-98.11648 135.6131,-145.61233 69.0468,-61.78918 82.6559,-34.40156 54.3008,298.18893 z"
           style="color:#000000;fill:#000000;fill-opacity:1;fill-rule:nonzero;stroke:#ffffff;stroke-width:7.08661413;stroke-linecap:butt;stroke-linejoin:miter;stroke-miterlimit:4;stroke-opacity:1;stroke-dasharray:none;stroke-dashoffset:0;marker:none;visibility:visible;display:inline;overflow:visible;enable-background:accumulate" />
        <path
           inkscape:connector-curvature="0"
           id="path4761"
           d="m 1244.3994,1380.4047 c 0,0 -10.6057,91.9159 -5.3028,98.9863 5.3028,7.0705 40.6551,93.6835 35.3522,160.8528 -5.3028,67.1693 -19.4437,127.2681 35.3523,121.9653 54.796,-5.3029 22.9789,-100.754 22.9789,-111.3596 0,-10.6057 47.7256,-187.367 42.4227,-229.7897 -5.3028,-42.4227 -22.9789,-169.6908 -58.3312,-169.6908 -35.3522,0 -72.4721,22.9789 -72.4721,129.0357 z"
           style="color:#000000;fill:#000000;fill-opacity:1;fill-rule:nonzero;stroke:#ffffff;stroke-width:7.08661413;stroke-linecap:butt;stroke-linejoin:miter;stroke-miterlimit:4;stroke-opacity:1;stroke-dasharray:none;stroke-dashoffset:0;marker:none;visibility:visible;display:inline;overflow:visible;enable-background:accumulate" />
        <path
           sodipodi:nodetypes="cscsssc"
           inkscape:connector-curvature="0"
           id="path4765"
           d="m 1306.2658,1711.8321 c 0,0 -32.0697,13.5689 -36.236,36.2361 -3.0175,16.417 -3.9187,15.6461 -2.6514,25.6304 7.9649,13.3583 21.7263,14.6209 30.0494,34.4684 11.4894,27.3981 27.398,58.3312 71.5883,49.4932 35.5324,-7.1064 95.4511,-1.7676 22.0952,-78.6588 -19.5319,-20.4732 -52.3147,-75.9185 -84.8455,-67.1693 z"
           style="color:#000000;fill:#e6b39d;fill-opacity:1;fill-rule:nonzero;stroke:#ffffff;stroke-width:7.59645081;stroke-linecap:butt;stroke-linejoin:miter;stroke-miterlimit:4;stroke-opacity:1;stroke-dasharray:none;stroke-dashoffset:0;marker:none;visibility:visible;display:inline;overflow:visible;enable-background:accumulate" />
      </g>
      <path
         style="color:#000000;fill:#000000;fill-opacity:1;fill-rule:nonzero;stroke:#ffffff;stroke-width:7.08661413;stroke-linecap:butt;stroke-linejoin:miter;stroke-miterlimit:4;stroke-opacity:1;stroke-dasharray:none;stroke-dashoffset:0;marker:none;visibility:visible;display:inline;overflow:visible;enable-background:accumulate"
         d="m 1421.126,618.64134 c 0,0 -29.9973,8.74923 -32.4971,72.49367 -2.4998,63.74444 1.2499,103.74095 12.4989,111.2403 11.249,7.49935 7.4993,36.24684 9.9991,57.49498 2.4998,21.24815 -11.249,27.49761 -2.4998,43.74619 8.7493,16.24858 48.7458,29.99738 58.7449,12.49891 9.9991,-17.49847 4.9996,-46.24597 9.9991,-79.99302 4.9996,-33.74706 11.2491,-72.49368 9.9992,-104.99085 -5.7202,-69.60731 -0.184,-136.70931 -66.2443,-112.49018 z"
         id="path4663"
         inkscape:connector-curvature="0"
         sodipodi:nodetypes="csssssscc" />
      <path
         style="color:#000000;fill:#e6b39d;fill-opacity:1;fill-rule:nonzero;stroke:#ffffff;stroke-width:7.59645081;stroke-linecap:butt;stroke-linejoin:miter;stroke-miterlimit:4;stroke-opacity:1;stroke-dasharray:none;stroke-dashoffset:0;marker:none;visibility:visible;display:inline;overflow:visible;enable-background:accumulate"
         d="m 1394.8783,911.11583 c 0,0 -14.9987,26.24771 -18.7483,39.99651 -3.7497,13.7488 -3.7497,16.24858 -3.7497,29.99738 0,13.7488 0,28.74748 -1.2499,33.74708 -1.2499,4.9995 -4.9996,37.4967 6.2495,38.7466 11.249,1.2499 42.4963,-1.2499 56.2451,-14.9987 13.7488,-13.7488 29.9973,-26.2477 37.4967,-41.2464 7.4993,-14.99869 4.6205,-21.10952 3.3706,-38.60799 -1.2499,-17.49848 -0.8708,-38.88525 -2.1207,-42.63492 -1.2499,-3.74967 -14.9987,-14.99869 -28.7475,-19.99826 -13.7488,-4.99956 -37.4967,-6.24945 -48.7458,14.9987 z"
         id="path4665"
         inkscape:connector-curvature="0"
         sodipodi:nodetypes="csssssssssc" />
      <g
         id="g4809"
         transform="matrix(-1,0,0,1,2332.3459,-2.499782)">
        <path
           style="color:#000000;fill:#000000;fill-opacity:1;fill-rule:nonzero;stroke:#ffffff;stroke-width:7.08661413;stroke-linecap:butt;stroke-linejoin:miter;stroke-miterlimit:4;stroke-opacity:1;stroke-dasharray:none;stroke-dashoffset:0;marker:none;visibility:visible;display:inline;overflow:visible;enable-background:accumulate"
           d="m 1361.0618,1182.4321 c -10.6056,77.7749 -7.0704,176.7613 -35.3522,176.7613 -28.2818,0 -65.4017,8.838 -88.3807,-42.4227 -22.9789,-51.2608 -65.5561,-277.541 -66.181,-286.9152 25.6227,-61.86962 68.744,-98.11648 135.6131,-145.61233 69.0468,-61.78918 82.6559,-34.40156 54.3008,298.18893 z"
           id="path4811"
           inkscape:connector-curvature="0"
           sodipodi:nodetypes="cssccc" />
        <path
           style="color:#000000;fill:#000000;fill-opacity:1;fill-rule:nonzero;stroke:#ffffff;stroke-width:7.08661413;stroke-linecap:butt;stroke-linejoin:miter;stroke-miterlimit:4;stroke-opacity:1;stroke-dasharray:none;stroke-dashoffset:0;marker:none;visibility:visible;display:inline;overflow:visible;enable-background:accumulate"
           d="m 1244.3994,1380.4047 c 0,0 -10.6057,91.9159 -5.3028,98.9863 5.3028,7.0705 40.6551,93.6835 35.3522,160.8528 -5.3028,67.1693 -19.4437,127.2681 35.3523,121.9653 54.796,-5.3029 22.9789,-100.754 22.9789,-111.3596 0,-10.6057 47.7256,-187.367 42.4227,-229.7897 -5.3028,-42.4227 -22.9789,-169.6908 -58.3312,-169.6908 -35.3522,0 -72.4721,22.9789 -72.4721,129.0357 z"
           id="path4813"
           inkscape:connector-curvature="0" />
        <path
           style="color:#000000;fill:#e6b39d;fill-opacity:1;fill-rule:nonzero;stroke:#ffffff;stroke-width:7.59645081;stroke-linecap:butt;stroke-linejoin:miter;stroke-miterlimit:4;stroke-opacity:1;stroke-dasharray:none;stroke-dashoffset:0;marker:none;visibility:visible;display:inline;overflow:visible;enable-background:accumulate"
           d="m 1306.2658,1711.8321 c 0,0 -32.0697,13.5689 -36.236,36.2361 -3.0175,16.417 -3.9187,15.6461 -2.6514,25.6304 7.9649,13.3583 21.7263,14.6209 30.0494,34.4684 11.4894,27.3981 27.398,58.3312 71.5883,49.4932 35.5324,-7.1064 95.4511,-1.7676 22.0952,-78.6588 -19.5319,-20.4732 -52.3147,-75.9185 -84.8455,-67.1693 z"
           id="path4815"
           inkscape:connector-curvature="0"
           sodipodi:nodetypes="cscsssc" />
      </g>
      <path
         sodipodi:nodetypes="csssssscc"
         inkscape:connector-curvature="0"
         id="path4755"
         d="m 916.8055,615.64178 c 0,0 29.9973,8.74923 32.4971,72.49367 2.4998,63.74444 -1.2499,103.74095 -12.4989,111.2403 -11.249,7.49935 -7.4993,36.24684 -9.9991,57.49498 -2.4998,21.24815 11.249,27.49761 2.4998,43.74619 -8.7493,16.24858 -48.7458,29.99738 -58.7449,12.49891 -9.9991,-17.49847 -4.9996,-46.24597 -9.9991,-79.99302 -4.9996,-33.74706 -11.2491,-72.49368 -9.9992,-104.99085 5.7202,-69.60731 0.184,-136.70931 66.2443,-112.49018 z"
         style="color:#000000;fill:#000000;fill-opacity:1;fill-rule:nonzero;stroke:#ffffff;stroke-width:7.08661413;stroke-linecap:butt;stroke-linejoin:miter;stroke-miterlimit:4;stroke-opacity:1;stroke-dasharray:none;stroke-dashoffset:0;marker:none;visibility:visible;display:inline;overflow:visible;enable-background:accumulate" />
      <path
         sodipodi:nodetypes="csssssssssc"
         inkscape:connector-curvature="0"
         id="path4757"
         d="m 943.0532,906.11627 c 0,0 14.9987,26.24771 18.7483,39.99651 3.7497,13.7488 3.7497,16.24858 3.7497,29.99738 0,13.7488 0,28.74744 1.2499,33.74704 1.2499,4.9995 4.9996,37.4967 -6.2495,38.7466 -11.249,1.2499 -42.4963,-1.2499 -56.2451,-14.9987 -13.7488,-13.7488 -29.9973,-26.2477 -37.4967,-41.24636 -7.4993,-14.99869 -4.6205,-21.10952 -3.3706,-38.60799 1.2499,-17.49848 0.8708,-38.88525 2.1207,-42.63492 1.2499,-3.74967 14.9987,-14.99869 28.7475,-19.99826 13.7488,-4.99956 37.4967,-6.24945 48.7458,14.9987 z"
         style="color:#000000;fill:#e6b39d;fill-opacity:1;fill-rule:nonzero;stroke:#ffffff;stroke-width:7.59645081;stroke-linecap:butt;stroke-linejoin:miter;stroke-miterlimit:4;stroke-opacity:1;stroke-dasharray:none;stroke-dashoffset:0;marker:none;visibility:visible;display:inline;overflow:visible;enable-background:accumulate" />
      <path
         style="color:#000000;fill:none;stroke:#ffffff;stroke-width:7.08661413;stroke-linecap:butt;stroke-linejoin:miter;stroke-miterlimit:4;stroke-opacity:1;stroke-dasharray:none;stroke-dashoffset:0;marker:none;visibility:visible;display:inline;overflow:visible;enable-background:accumulate"
         d="m 1187.8358,379.93588 c -3.6451,90.36677 -5.8213,109.27208 84.8454,107.82438 15.9085,0 45.0297,0 45.0297,0"
         id="path4817"
         inkscape:connector-curvature="0"
         sodipodi:nodetypes="ccc" />
      <path
         sodipodi:nodetypes="ccc"
         inkscape:connector-curvature="0"
         id="path4819"
         d="m 1174.7758,379.70349 c 3.6451,90.36677 5.8213,109.27208 -84.8454,107.82438 -15.9085,0 -45.0297,0 -45.0297,0"
         style="color:#000000;fill:none;stroke:#ffffff;stroke-width:7.08661413;stroke-linecap:butt;stroke-linejoin:miter;stroke-miterlimit:4;stroke-opacity:1;stroke-dasharray:none;stroke-dashoffset:0;marker:none;visibility:visible;display:inline;overflow:visible;enable-background:accumulate" />
    </g>
    <g
       id="layer9"
       inkscape:label="Foto"
       style="display:none"
       transform="translate(-2407.0685,872.78029)">
      <image
         style="opacity:0.68217049;display:inline"
         y="-21.62928"
         x="823.95337"
         id="image4443"
         xlink:href="file:///C:/Mao/Progetti/Mentor/grafiche/20150629_071938.jpg"
         height="1952.9825"
         width="670.67627" />
    </g>
    <g
       id="g3921"
       transform="matrix(0.70094205,-0.59748066,0.98911189,0.05470353,-917.3922,1153.9097)">
      <g
         transform="matrix(0.99082602,0.13514363,-0.13514363,0.99082602,184.58554,38.827695)"
         inkscape:transform-center-y="20.836996"
         inkscape:transform-center-x="4.8353977"
         id="g3916">
        <path
           sodipodi:nodetypes="sscsssss"
           inkscape:connector-curvature="0"
           id="path3861"
           d="m -193.3007,1376.1863 c -1.00182,-0.024 -2.20101,-1.9768 -3.91291,5.7675 -1.71189,7.7443 -2.44556,14.2658 -2.44556,14.2658 0,0 -0.16304,2.5271 2.03797,2.9347 2.20101,0.4076 2.77164,0.6521 3.34227,-1.3858 0.57063,-2.038 1.46734,-6.0324 1.54886,-7.1737 0.0815,-1.1413 1.46734,-10.1083 1.46734,-10.4344 0,-0.3261 0.13658,-3.9214 -2.03797,-3.9741 z"
           style="color:#000000;fill:#000000;fill-opacity:1;fill-rule:nonzero;stroke:#ffffff;stroke-width:0.4621945;stroke-linecap:butt;stroke-linejoin:miter;stroke-miterlimit:4;stroke-opacity:1;stroke-dasharray:none;stroke-dashoffset:0;marker:none;visibility:visible;display:inline;overflow:visible;enable-background:accumulate" />
        <path
           sodipodi:nodetypes="csssssscc"
           inkscape:connector-curvature="0"
           id="path3885"
           d="m -196.72449,1395.975 c 0,0 1.95645,0.5707 2.11949,4.7281 0.16303,4.1575 -0.0815,6.7661 -0.81519,7.2552 -0.73367,0.4891 -0.48911,2.3641 -0.65215,3.7499 -0.16304,1.3858 0.73367,1.7934 0.16304,2.8531 -0.57064,1.0598 -3.17924,1.9565 -3.83139,0.8152 -0.65215,-1.1412 -0.32608,-3.0162 -0.65215,-5.2172 -0.32608,-2.201 -0.73367,-4.7281 -0.65216,-6.8476 0.37308,-4.5398 0.012,-8.9163 4.32051,-7.3367 z"
           style="color:#000000;fill:#000000;fill-opacity:1;fill-rule:nonzero;stroke:#ffffff;stroke-width:0.4621945;stroke-linecap:butt;stroke-linejoin:miter;stroke-miterlimit:4;stroke-opacity:1;stroke-dasharray:none;stroke-dashoffset:0;marker:none;visibility:visible;display:inline;overflow:visible;enable-background:accumulate" />
        <path
           sodipodi:nodetypes="csssssssssc"
           inkscape:connector-curvature="0"
           id="path3887"
           d="m -195.01259,1414.92 c 0,0 0.97822,1.7119 1.22277,2.6086 0.24456,0.8967 0.24456,1.0598 0.24456,1.9565 0,0.8967 0,1.8749 0.0815,2.201 0.0815,0.326 0.32608,2.4455 -0.4076,2.5271 -0.73366,0.082 -2.77164,-0.082 -3.66834,-0.9783 -0.89671,-0.8967 -1.95645,-1.7119 -2.44557,-2.6901 -0.48911,-0.9782 -0.30135,-1.3768 -0.21983,-2.518 0.0815,-1.1413 0.0568,-2.5362 0.13831,-2.7807 0.0815,-0.2446 0.97823,-0.9782 1.87494,-1.3043 0.8967,-0.3261 2.44556,-0.4076 3.17924,0.9782 z"
           style="color:#000000;fill:#e6b39d;fill-opacity:1;fill-rule:nonzero;stroke:#ffffff;stroke-width:0.49544644;stroke-linecap:butt;stroke-linejoin:miter;stroke-miterlimit:4;stroke-opacity:1;stroke-dasharray:none;stroke-dashoffset:0;marker:none;visibility:visible;display:inline;overflow:visible;enable-background:accumulate" />
      </g>
      <g
         transform="matrix(0.99055993,-0.13708039,0.13708039,0.99055993,-190.64753,-9.9012424)"
         inkscape:transform-center-y="20.782205"
         inkscape:transform-center-x="-5.222366"
         id="g3911">
        <path
           style="color:#000000;fill:#000000;fill-opacity:1;fill-rule:nonzero;stroke:#ffffff;stroke-width:0.4621945;stroke-linecap:butt;stroke-linejoin:miter;stroke-miterlimit:4;stroke-opacity:1;stroke-dasharray:none;stroke-dashoffset:0;marker:none;visibility:visible;display:inline;overflow:visible;enable-background:accumulate"
           d="m -167.2561,1376.382 c 1.00181,-0.024 2.20101,-1.9769 3.9129,5.7674 1.7119,7.7443 2.44557,14.2658 2.44557,14.2658 0,0 0.16304,2.5271 -2.03798,2.9347 -2.201,0.4076 -2.77163,0.6522 -3.34227,-1.3858 -0.57063,-2.038 -1.46733,-6.0324 -1.54885,-7.1737 -0.0815,-1.1412 -1.46735,-10.1083 -1.46735,-10.4344 0,-0.3261 -0.13658,-3.9214 2.03798,-3.974 z"
           id="path3859"
           inkscape:connector-curvature="0"
           sodipodi:nodetypes="sscsssss" />
        <path
           style="color:#000000;fill:#000000;fill-opacity:1;fill-rule:nonzero;stroke:#ffffff;stroke-width:0.4621945;stroke-linecap:butt;stroke-linejoin:miter;stroke-miterlimit:4;stroke-opacity:1;stroke-dasharray:none;stroke-dashoffset:0;marker:none;visibility:visible;display:inline;overflow:visible;enable-background:accumulate"
           d="m -163.83231,1396.1707 c 0,0 -1.95645,0.5706 -2.11949,4.7281 -0.16304,4.1574 0.0815,6.766 0.81519,7.2551 0.73367,0.4892 0.48911,2.3641 0.65215,3.7499 0.16304,1.3858 -0.73367,1.7934 -0.16304,2.8532 0.57063,1.0597 3.17924,1.9564 3.83139,0.8152 0.65215,-1.1413 0.32607,-3.0162 0.65215,-5.2172 0.32607,-2.2011 0.73367,-4.7281 0.65215,-6.8476 -0.37307,-4.5399 -0.012,-8.9163 -4.3205,-7.3367 z"
           id="path3873"
           inkscape:connector-curvature="0"
           sodipodi:nodetypes="csssssscc" />
        <path
           style="color:#000000;fill:#e6b39d;fill-opacity:1;fill-rule:nonzero;stroke:#ffffff;stroke-width:0.49544644;stroke-linecap:butt;stroke-linejoin:miter;stroke-miterlimit:4;stroke-opacity:1;stroke-dasharray:none;stroke-dashoffset:0;marker:none;visibility:visible;display:inline;overflow:visible;enable-background:accumulate"
           d="m -165.54421,1415.2461 c 0,0 -0.97823,1.7119 -1.22278,2.6086 -0.24456,0.8967 -0.24456,1.0597 -0.24456,1.9564 0,0.8967 0,1.875 -0.0815,2.2011 -0.0815,0.326 -0.32607,2.4455 0.4076,2.527 0.73367,0.082 2.77164,-0.082 3.66835,-0.9782 0.89671,-0.8967 1.95645,-1.7119 2.44556,-2.6901 0.48911,-0.9782 0.30136,-1.3768 0.21984,-2.5181 -0.0815,-1.1412 -0.0568,-2.5361 -0.13832,-2.7806 -0.0815,-0.2446 -0.97822,-0.9783 -1.87493,-1.3043 -0.89671,-0.3261 -2.44556,-0.4076 -3.17924,0.9782 z"
           id="path3875"
           inkscape:connector-curvature="0"
           sodipodi:nodetypes="csssssssssc" />
      </g>
      <path
         inkscape:connector-curvature="0"
         id="path3857"
         d="m -181.06085,1356.605 c -0.73698,0.013 -2.40647,0.1982 -3.9744,1.4594 -1.1276,0.9069 -1.64217,2.7385 -1.69981,3.6319 -0.0576,0.8935 0.60533,3.0838 0.60533,3.0838 0,0 -1.81651,-2.134 -1.35537,0.1141 0.46114,2.2481 0.92216,3.487 1.2392,3.5158 0.31702,0.029 0.34533,0.029 0.46061,0.375 0.11524,0.3457 1.85806,5.1547 5.05461,5.1301 0.001,0 0.003,-10e-5 0.004,0 3.19654,0.025 4.9353,-4.7844 5.05053,-5.1301 0.11529,-0.3458 0.14359,-0.3462 0.46063,-0.375 0.31702,-0.029 0.78008,-1.2677 1.24123,-3.5158 0.46113,-2.2481 -1.35537,-0.1141 -1.35537,-0.1141 0,0 0.66297,-2.1903 0.60533,-3.0838 -0.0576,-0.8934 -0.55544,-2.7462 -1.69982,-3.6319 -2.08037,-1.6102 -4.26992,-1.4512 -4.26992,-1.4512 -0.0257,0 -0.14634,-0.012 -0.36687,-0.01 z"
         style="color:#000000;fill:#e6b39d;fill-opacity:1;fill-rule:nonzero;stroke:#e6b39d;stroke-width:0.49544644;stroke-linecap:butt;stroke-linejoin:miter;stroke-miterlimit:4;stroke-opacity:1;stroke-dasharray:none;stroke-dashoffset:0;marker:none;visibility:visible;display:inline;overflow:visible;enable-background:accumulate" />
      <path
         sodipodi:nodetypes="zsssscccccssscz"
         inkscape:connector-curvature="0"
         id="path3863"
         d="m -180.77345,1374.1678 c -5.32203,0.026 -4.69444,1.8669 -11.05291,1.9892 -3.09822,0.06 -4.72838,0.5304 -3.34257,5.503 1.38583,4.9727 3.91323,16.1403 3.66867,18.0967 -0.24455,1.9565 -1.63045,10.3535 -1.22286,12.5545 0.4063,2.194 9.51594,9.9317 12.27167,10.071 l 0,0 c 0.004,0 0.008,0 0.0122,0 0.005,0 0.01,0 0.0143,0 l 0,0 c 2.75572,-0.1393 12.0284,-8.04 12.4347,-10.234 0.40759,-2.201 -1.14134,-10.435 -1.3859,-12.3915 -0.24455,-1.9564 2.28285,-13.124 3.66867,-18.0967 1.38582,-4.9726 -0.2444,-5.5654 -3.34256,-5.503 -8.76205,-0.2601 -6.40138,-2.0156 -11.72341,-1.9892 z"
         style="color:#000000;fill:#000000;fill-opacity:1;fill-rule:nonzero;stroke:#ffffff;stroke-width:0.4621945;stroke-linecap:butt;stroke-linejoin:miter;stroke-miterlimit:4;stroke-opacity:1;stroke-dasharray:none;stroke-dashoffset:0;marker:none;visibility:visible;display:inline;overflow:visible;enable-background:accumulate" />
      <g
         transform="matrix(0.06522078,0,0,0.06522078,-256.51926,1355.8224)"
         id="g3865">
        <path
           style="color:#000000;fill:#000000;fill-opacity:1;fill-rule:nonzero;stroke:#ffffff;stroke-width:7.08661413;stroke-linecap:butt;stroke-linejoin:miter;stroke-miterlimit:4;stroke-opacity:1;stroke-dasharray:none;stroke-dashoffset:0;marker:none;visibility:visible;display:inline;overflow:visible;enable-background:accumulate"
           d="m 1361.0618,1182.4321 c -10.6056,77.7749 -7.0704,176.7613 -35.3522,176.7613 -28.2818,0 -65.4017,8.838 -88.3807,-42.4227 -22.9789,-51.2608 -65.5561,-277.541 -66.181,-286.9152 25.6227,-61.86962 68.744,-98.11648 135.6131,-145.61233 69.0468,-61.78918 82.6559,-34.40156 54.3008,298.18893 z"
           id="path3867"
           inkscape:connector-curvature="0"
           sodipodi:nodetypes="cssccc" />
        <path
           style="color:#000000;fill:#000000;fill-opacity:1;fill-rule:nonzero;stroke:#ffffff;stroke-width:7.08661413;stroke-linecap:butt;stroke-linejoin:miter;stroke-miterlimit:4;stroke-opacity:1;stroke-dasharray:none;stroke-dashoffset:0;marker:none;visibility:visible;display:inline;overflow:visible;enable-background:accumulate"
           d="m 1244.3994,1380.4047 c 0,0 -10.6057,91.9159 -5.3028,98.9863 5.3028,7.0705 40.6551,93.6835 35.3522,160.8528 -5.3028,67.1693 -19.4437,127.2681 35.3523,121.9653 54.796,-5.3029 22.9789,-100.754 22.9789,-111.3596 0,-10.6057 47.7256,-187.367 42.4227,-229.7897 -5.3028,-42.4227 -22.9789,-169.6908 -58.3312,-169.6908 -35.3522,0 -72.4721,22.9789 -72.4721,129.0357 z"
           id="path3869"
           inkscape:connector-curvature="0" />
        <path
           style="color:#000000;fill:#e6b39d;fill-opacity:1;fill-rule:nonzero;stroke:#ffffff;stroke-width:7.59645081;stroke-linecap:butt;stroke-linejoin:miter;stroke-miterlimit:4;stroke-opacity:1;stroke-dasharray:none;stroke-dashoffset:0;marker:none;visibility:visible;display:inline;overflow:visible;enable-background:accumulate"
           d="m 1306.2658,1711.8321 c 0,0 -32.0697,13.5689 -36.236,36.2361 -3.0175,16.417 -3.9187,15.6461 -2.6514,25.6304 7.9649,13.3583 21.7263,14.6209 30.0494,34.4684 11.4894,27.3981 27.398,58.3312 71.5883,49.4932 35.5324,-7.1064 95.4511,-1.7676 22.0952,-78.6588 -19.5319,-20.4732 -52.3147,-75.9185 -84.8455,-67.1693 z"
           id="path3871"
           inkscape:connector-curvature="0"
           sodipodi:nodetypes="cscsssc" />
      </g>
      <g
         transform="matrix(-0.06522078,0,0,0.06522078,-104.40184,1355.6594)"
         id="g3877">
        <path
           sodipodi:nodetypes="cssccc"
           inkscape:connector-curvature="0"
           id="path3879"
           d="m 1361.0618,1182.4321 c -10.6056,77.7749 -7.0704,176.7613 -35.3522,176.7613 -28.2818,0 -65.4017,8.838 -88.3807,-42.4227 -22.9789,-51.2608 -65.5561,-277.541 -66.181,-286.9152 25.6227,-61.86962 68.744,-98.11648 135.6131,-145.61233 69.0468,-61.78918 82.6559,-34.40156 54.3008,298.18893 z"
           style="color:#000000;fill:#000000;fill-opacity:1;fill-rule:nonzero;stroke:#ffffff;stroke-width:7.08661413;stroke-linecap:butt;stroke-linejoin:miter;stroke-miterlimit:4;stroke-opacity:1;stroke-dasharray:none;stroke-dashoffset:0;marker:none;visibility:visible;display:inline;overflow:visible;enable-background:accumulate" />
        <path
           inkscape:connector-curvature="0"
           id="path3881"
           d="m 1244.3994,1380.4047 c 0,0 -10.6057,91.9159 -5.3028,98.9863 5.3028,7.0705 40.6551,93.6835 35.3522,160.8528 -5.3028,67.1693 -19.4437,127.2681 35.3523,121.9653 54.796,-5.3029 22.9789,-100.754 22.9789,-111.3596 0,-10.6057 47.7256,-187.367 42.4227,-229.7897 -5.3028,-42.4227 -22.9789,-169.6908 -58.3312,-169.6908 -35.3522,0 -72.4721,22.9789 -72.4721,129.0357 z"
           style="color:#000000;fill:#000000;fill-opacity:1;fill-rule:nonzero;stroke:#ffffff;stroke-width:7.08661413;stroke-linecap:butt;stroke-linejoin:miter;stroke-miterlimit:4;stroke-opacity:1;stroke-dasharray:none;stroke-dashoffset:0;marker:none;visibility:visible;display:inline;overflow:visible;enable-background:accumulate" />
        <path
           sodipodi:nodetypes="cscsssc"
           inkscape:connector-curvature="0"
           id="path3883"
           d="m 1306.2658,1711.8321 c 0,0 -32.0697,13.5689 -36.236,36.2361 -3.0175,16.417 -3.9187,15.6461 -2.6514,25.6304 7.9649,13.3583 21.7263,14.6209 30.0494,34.4684 11.4894,27.3981 27.398,58.3312 71.5883,49.4932 35.5324,-7.1064 95.4511,-1.7676 22.0952,-78.6588 -19.5319,-20.4732 -52.3147,-75.9185 -84.8455,-67.1693 z"
           style="color:#000000;fill:#e6b39d;fill-opacity:1;fill-rule:nonzero;stroke:#ffffff;stroke-width:7.59645081;stroke-linecap:butt;stroke-linejoin:miter;stroke-miterlimit:4;stroke-opacity:1;stroke-dasharray:none;stroke-dashoffset:0;marker:none;visibility:visible;display:inline;overflow:visible;enable-background:accumulate" />
      </g>
      <path
         sodipodi:nodetypes="ccc"
         inkscape:connector-curvature="0"
         id="path3889"
         d="m -179.04768,1380.6021 c -0.23774,5.8938 -0.37967,7.1268 5.53368,7.0324 1.03757,0 2.93687,0 2.93687,0"
         style="color:#000000;fill:none;stroke:#ffffff;stroke-width:0.4621945;stroke-linecap:butt;stroke-linejoin:miter;stroke-miterlimit:4;stroke-opacity:1;stroke-dasharray:none;stroke-dashoffset:0;marker:none;visibility:visible;display:inline;overflow:visible;enable-background:accumulate" />
      <path
         style="color:#000000;fill:none;stroke:#ffffff;stroke-width:0.4621945;stroke-linecap:butt;stroke-linejoin:miter;stroke-miterlimit:4;stroke-opacity:1;stroke-dasharray:none;stroke-dashoffset:0;marker:none;visibility:visible;display:inline;overflow:visible;enable-background:accumulate"
         d="m -179.89947,1380.587 c 0.23774,5.8937 0.37967,7.1268 -5.53368,7.0323 -1.03756,0 -2.93687,0 -2.93687,0"
         id="path3891"
         inkscape:connector-curvature="0"
         sodipodi:nodetypes="ccc" />
    </g>
  </g>
</svg>
