<?xml version="1.0" encoding="UTF-8" standalone="no"?>
<!-- Created with Inkscape (http://www.inkscape.org/) -->

<svg
   xmlns:dc="http://purl.org/dc/elements/1.1/"
   xmlns:cc="http://creativecommons.org/ns#"
   xmlns:rdf="http://www.w3.org/1999/02/22-rdf-syntax-ns#"
   xmlns:svg="http://www.w3.org/2000/svg"
   xmlns="http://www.w3.org/2000/svg"
   xmlns:sodipodi="http://sodipodi.sourceforge.net/DTD/sodipodi-0.dtd"
   xmlns:inkscape="http://www.inkscape.org/namespaces/inkscape"
   width="283.46457"
   height="61.342537"
   id="svg2"
   version="1.1"
   inkscape:version="0.48.4 r9939"
   sodipodi:docname="New document 1">
  <defs
     id="defs4" />
  <sodipodi:namedview
     id="base"
     pagecolor="#ffffff"
     bordercolor="#666666"
     borderopacity="1.0"
     inkscape:pageopacity="0.0"
     inkscape:pageshadow="2"
     inkscape:zoom="0.7"
     inkscape:cx="378.04092"
     inkscape:cy="16.011366"
     inkscape:document-units="px"
     inkscape:current-layer="layer1"
     showgrid="false"
     fit-margin-top="0"
     fit-margin-left="0"
     fit-margin-right="0"
     fit-margin-bottom="0"
     inkscape:window-width="1330"
     inkscape:window-height="747"
     inkscape:window-x="36"
     inkscape:window-y="21"
     inkscape:window-maximized="1" />
  <metadata
     id="metadata7">
    <rdf:RDF>
      <cc:Work
         rdf:about="">
        <dc:format>image/svg+xml</dc:format>
        <dc:type
           rdf:resource="http://purl.org/dc/dcmitype/StillImage" />
        <dc:title></dc:title>
      </cc:Work>
    </rdf:RDF>
  </metadata>
  <g
     inkscape:label="Layer 1"
     inkscape:groupmode="layer"
     id="layer1"
     transform="translate(-160.35714,-663.00483)">
    <path
       inkscape:connector-curvature="0"
       id="path2998"
       d="m 174.71421,723.97405 c -1.58062,-0.57514 -4.71538,-3.66464 -6.87219,-6.77296 -3.0085,-4.33574 -7.48488,-16.03598 -7.48488,-19.56376 0,-3.20598 1.56855,-5.38531 4.51769,-6.27683 1.38304,-0.41811 12.30286,0.92692 18.7271,2.30665 14.30244,3.07174 19.39105,4.27462 21.967,5.19272 1.64282,0.58552 5.75581,1.64917 9.13998,2.36367 3.38416,0.71448 9.22955,2.12468 12.98973,3.13374 6.2446,1.67579 7.99126,1.84099 20.16826,1.90766 12.16134,0.0666 13.78164,-0.067 18.45909,-1.52105 6.88705,-2.14102 11.66617,-4.89473 22.22282,-12.80471 4.88629,-3.66124 11.15411,-8.14925 13.92849,-9.97336 4.54755,-2.98992 5.4287,-3.31654 8.94732,-3.31654 3.44025,0 4.34177,0.31414 7.60358,2.64953 7.62542,5.45966 16.34845,9.18321 16.34845,6.97855 0,-0.34483 -1.07677,-3.84486 -2.39284,-7.77787 -2.95373,-8.8271 -3.20615,-13.83753 -0.81052,-16.08811 2.18687,-2.05447 5.03401,-1.85966 8.67272,0.59337 1.6921,1.14072 5.69157,3.66084 8.88771,5.60027 3.19617,1.93944 7.96477,5.06881 10.59689,6.95416 4.64494,3.32712 6.40456,4.69066 15.04075,11.65502 2.25611,1.81938 6.31597,4.32455 9.02193,5.56708 2.70595,1.24253 6.13284,3.0618 7.61529,4.04285 2.1414,1.41711 3.36148,1.74025 5.93624,1.57223 l 3.24087,-0.21148 1.49337,-4.44386 c 3.77026,-11.21911 10.26125,-19.82642 14.95164,-19.82642 2.7812,0 10.2567,2.36346 13.22667,4.18177 3.26372,1.99813 10.08886,9.60245 11.81042,13.15874 1.3314,2.7503 1.42291,3.45905 0.72113,5.58546 -0.89558,2.71361 -15.37168,18.21077 -18.54271,19.85057 -4.52441,2.33966 -13.84357,0.50147 -17.70285,-3.4919 -4.30611,-4.45569 -5.89011,-5.06081 -15.11904,-5.77573 -9.28584,-0.71935 -20.50979,-2.59607 -30.94096,-5.17354 -7.80798,-1.9293 -9.29863,-2.04207 -9.29863,-0.70342 0,1.85115 2.65234,7.14305 3.92025,7.82161 0.70148,0.37542 5.10572,0.88765 9.78722,1.1383 4.6815,0.25065 9.67918,0.74981 11.10596,1.10924 3.165,0.79728 4.52939,3.10467 3.35718,5.6774 -1.23486,2.71021 -4.78879,3.26096 -15.93587,2.46956 -14.70135,-1.04375 -16.02919,-1.96497 -20.81908,-14.44394 -1.36169,-3.54759 -2.72698,-6.71329 -3.03398,-7.03487 -0.30699,-0.32159 -3.12546,-1.18044 -6.26323,-1.90858 -5.68367,-1.31889 -13.31661,-4.74884 -17.45165,-7.84208 -3.61643,-2.70531 -5.25987,-3.06657 -7.87802,-1.73175 -1.27524,0.65015 -7.07242,4.73196 -12.88261,9.07071 -13.32352,9.94925 -17.33474,12.34096 -25.01057,14.9126 -10.39813,3.48369 -22.42284,4.1538 -36.48682,2.03333 -5.35779,-0.80781 -23.09909,-4.93786 -29.73966,-6.92318 -5.38117,-1.6088 -9.21553,-2.49273 -21.5356,-4.9646 -9.53496,-1.91307 -11.62239,-2.08109 -11.62239,-0.93552 0,2.35768 3.28108,9.16702 5.88973,12.22311 3.99939,4.68541 4.44479,6.57492 2.03787,8.64526 -1.86572,1.60482 -2.63263,1.79377 -4.50925,1.1109 z m 193.10758,-28.96392 c -1.09198,-1.76688 -23.61257,-17.72819 -25.01356,-17.72819 -1.43031,0 -0.34192,3.79303 3.27624,11.41774 1.17181,2.46944 1.80583,2.73782 13.32868,5.6422 7.4744,1.88397 9.24706,2.02483 8.40864,0.66825 z"
       style="fill:#181818" />
  </g>
</svg>
