<?xml version="1.0" encoding="UTF-8" standalone="no"?>
<!-- Created with Inkscape (http://www.inkscape.org/) -->

<svg
   xmlns:dc="http://purl.org/dc/elements/1.1/"
   xmlns:cc="http://creativecommons.org/ns#"
   xmlns:rdf="http://www.w3.org/1999/02/22-rdf-syntax-ns#"
   xmlns:svg="http://www.w3.org/2000/svg"
   xmlns="http://www.w3.org/2000/svg"
   xmlns:sodipodi="http://sodipodi.sourceforge.net/DTD/sodipodi-0.dtd"
   xmlns:inkscape="http://www.inkscape.org/namespaces/inkscape"
   width="106.29921"
   height="75.019394"
   id="svg3023"
   version="1.1"
   inkscape:version="0.48.4 r9939"
   sodipodi:docname="ashwa_sanchalanasana.svg">
  <defs
     id="defs3025" />
  <sodipodi:namedview
     id="base"
     pagecolor="#ffffff"
     bordercolor="#666666"
     borderopacity="1.0"
     inkscape:pageopacity="0.0"
     inkscape:pageshadow="2"
     inkscape:zoom="3.959798"
     inkscape:cx="99.137125"
     inkscape:cy="48.894971"
     inkscape:document-units="px"
     inkscape:current-layer="layer1"
     showgrid="false"
     fit-margin-top="0"
     fit-margin-left="0"
     fit-margin-right="0"
     fit-margin-bottom="0"
     inkscape:window-width="1330"
     inkscape:window-height="747"
     inkscape:window-x="36"
     inkscape:window-y="21"
     inkscape:window-maximized="1" />
  <metadata
     id="metadata3028">
    <rdf:RDF>
      <cc:Work
         rdf:about="">
        <dc:format>image/svg+xml</dc:format>
        <dc:type
           rdf:resource="http://purl.org/dc/dcmitype/StillImage" />
        <dc:title />
      </cc:Work>
    </rdf:RDF>
  </metadata>
  <g
     inkscape:label="Layer 1"
     inkscape:groupmode="layer"
     id="layer1"
     transform="translate(-212,-572.34277)">
    <path
       inkscape:connector-curvature="0"
       id="path3123"
       d="m 215.66532,645.08073 c -0.58449,-0.35648 -1.34765,-1.11683 -1.69591,-1.68968 -1.97971,-3.25638 -0.40179,-11.54038 2.45805,-12.90456 1.01109,-0.4823 1.39967,-0.4794 4.93794,0.0369 8.56234,1.24931 12.12742,1.97327 15.56188,3.16014 4.71586,1.62969 6.76663,1.93108 13.16007,1.93405 4.97584,0.002 5.61431,-0.0706 9.94517,-1.13523 7.90269,-1.9427 14.48974,-5.93332 19.87344,-12.03987 3.68265,-4.17711 3.58938,-3.90123 3.53166,-10.44672 -0.027,-3.06243 0.10001,-7.03582 0.28225,-8.82976 0.4331,-4.26332 1.85245,-10.00683 2.82844,-11.44547 0.78659,-1.15945 1.04652,-3.18844 0.45529,-3.55395 -0.17536,-0.10841 -1.08239,0.0297 -2.01561,0.30693 -2.2489,0.66805 -7.75394,0.66848 -10.00166,7.8e-4 -3.67607,-1.09201 -5.01504,-3.62236 -4.29677,-8.11993 0.5041,-3.15649 1.43269,-4.93072 3.08871,-5.90151 1.24391,-0.72921 1.72563,-0.80528 5.09497,-0.80453 2.93621,6.5e-4 4.3615,0.17242 6.75668,0.81431 3.4599,0.92722 4.1087,1.21611 5.36603,2.38936 1.40766,1.31353 1.67659,2.87748 1.03545,6.02185 -0.60968,2.99014 -0.46392,7.31434 0.39267,11.64862 0.2659,1.34546 0.56431,4.281 0.66313,6.52342 0.25206,5.71986 -0.31772,8.73603 -2.50901,13.28161 -2.08375,4.32249 -2.42179,5.40959 -1.954,6.28392 0.44089,0.82406 1.42024,0.83265 4.4045,0.0387 19.28357,-5.13065 21.33149,-5.52852 22.87821,-4.44482 1.64448,1.15219 1.21073,2.82069 -1.55293,5.97374 -8.29885,9.46814 -10.33887,11.63356 -13.1735,13.98327 -1.08951,0.90313 -1.52219,1.46024 -1.30428,1.67941 0.17934,0.18039 1.71381,0.47313 3.40994,0.65055 2.56116,0.26791 3.18294,0.44496 3.6683,1.04454 0.81832,1.01089 0.72897,1.7933 -0.29699,2.60057 -0.82449,0.64874 -1.19721,0.68714 -5.76993,0.59447 l -4.8885,-0.0991 -0.23463,1.12566 c -0.43149,2.07024 -2.0372,2.55876 -3.52352,1.07199 -1.00501,-1.00532 -1.96923,-3.36397 -3.16516,-7.74256 -1.18116,-4.32451 -2.73732,-9.02923 -3.26356,-9.86668 -0.3716,-0.59138 -0.75847,-0.73389 -1.99222,-0.73389 -1.39078,0 -1.68139,0.14586 -3.17168,1.59182 -2.61428,2.53654 -7.88615,6.16904 -11.42275,7.87068 -2.29276,1.10317 -4.68884,1.91646 -8.07167,2.73971 -4.70312,1.14457 -4.9574,1.17081 -11.34472,1.17081 -7.22666,0 -9.61655,-0.33812 -14.11386,-1.99684 -1.46023,-0.53857 -3.75741,-1.19143 -5.10484,-1.45079 -2.75426,-0.53017 -10.90217,-1.77111 -11.62894,-1.77111 -0.72317,0 -1.41825,2.04358 -1.41825,4.16974 0,1.77003 0.0822,1.98032 1.14125,2.91818 1.56671,1.38748 1.5436,2.78254 -0.0601,3.62691 -1.01348,0.53361 -1.7438,0.4656 -2.95906,-0.27558 z m 82.32624,-12.01308 c 2.11258,-1.76258 4.56617,-4.07432 5.45241,-5.1372 0.88625,-1.06288 2.46362,-2.83716 3.50527,-3.94285 1.04165,-1.10568 1.89391,-2.16981 1.89391,-2.36474 0,-0.6239 0.47491,-0.72847 -15.22999,3.35334 -1.47193,0.38257 -2.83631,0.8568 -3.03195,1.05386 -0.25715,0.259 -0.12089,0.98207 0.49174,2.60937 0.4661,1.23809 1.12731,3.31921 1.46935,4.6247 0.67735,2.58523 0.8617,3.00821 1.3111,3.00821 0.16342,0 2.02559,-1.44211 4.13816,-3.20469 z m -9.36483,-27.98316 c 0,-0.67801 -0.13241,-1.05974 -0.32607,-0.94002 -0.17934,0.11087 -0.32607,0.7153 -0.32607,1.34318 0,0.67801 0.13241,1.05974 0.32607,0.94002 0.17934,-0.11087 0.32607,-0.7153 0.32607,-1.34318 z"
       style="fill:#181818" />
  </g>
</svg>
