<?xml version="1.0" encoding="UTF-8" standalone="no"?>
<!-- Created with Inkscape (http://www.inkscape.org/) -->

<svg
   xmlns:dc="http://purl.org/dc/elements/1.1/"
   xmlns:cc="http://creativecommons.org/ns#"
   xmlns:rdf="http://www.w3.org/1999/02/22-rdf-syntax-ns#"
   xmlns:svg="http://www.w3.org/2000/svg"
   xmlns="http://www.w3.org/2000/svg"
   xmlns:sodipodi="http://sodipodi.sourceforge.net/DTD/sodipodi-0.dtd"
   xmlns:inkscape="http://www.inkscape.org/namespaces/inkscape"
   width="111.51906"
   height="106.29497"
   id="svg2"
   version="1.1"
   inkscape:version="0.48.4 r9939"
   sodipodi:docname="baddha_konasana.svg">
  <defs
     id="defs4" />
  <sodipodi:namedview
     id="base"
     pagecolor="#ffffff"
     bordercolor="#666666"
     borderopacity="1.0"
     inkscape:pageopacity="0.0"
     inkscape:pageshadow="2"
     inkscape:zoom="0.83185002"
     inkscape:cx="180.07106"
     inkscape:cy="345.90079"
     inkscape:document-units="cm"
     inkscape:current-layer="layer1"
     showgrid="false"
     fit-margin-top="0"
     fit-margin-left="0"
     fit-margin-right="0"
     fit-margin-bottom="0"
     inkscape:window-width="1330"
     inkscape:window-height="747"
     inkscape:window-x="36"
     inkscape:window-y="21"
     inkscape:window-maximized="1" />
  <metadata
     id="metadata7">
    <rdf:RDF>
      <cc:Work
         rdf:about="">
        <dc:format>image/svg+xml</dc:format>
        <dc:type
           rdf:resource="http://purl.org/dc/dcmitype/StillImage" />
        <dc:title></dc:title>
      </cc:Work>
    </rdf:RDF>
  </metadata>
  <g
     inkscape:label="Layer 1"
     inkscape:groupmode="layer"
     id="layer1"
     transform="translate(-32.228633,-1064.9324)">
    <path
       inkscape:connector-curvature="0"
       id="path3082"
       d="m 90.108343,1170.1112 c -1.140002,-1.0009 -1.516917,-1.1268 -2.763245,-0.9229 -0.79375,0.1299 -2.072703,0.5019 -2.842132,0.8267 -1.941038,0.8195 -3.102373,0.4133 -4.459878,-1.5598 -1.285667,-1.8686 -2.972165,-2.6659 -6.468959,-3.058 -3.988096,-0.4473 -9.715829,-1.7739 -17.069238,-3.9534 -5.979917,-1.7723 -8.486485,-2.3166 -13.086421,-2.8412 -3.129361,-0.3569 -6.362207,-0.8258 -7.184102,-1.042 -2.120444,-0.5578 -4.005735,-2.5433 -4.005735,-4.2188 0,-3.9909 5.590523,-5.6105 14.793344,-4.2858 4.27076,0.6147 23.826425,1.5488 24.218479,1.1567 0.109255,-0.1092 -0.186176,-0.8355 -0.656513,-1.6139 -1.340748,-2.2188 -3.314771,-6.5026 -4.172778,-9.0552 -1.408516,-4.1905 -1.611852,-7.0414 -1.489113,-20.8786 0.128892,-14.5307 0.139611,-14.5987 2.491757,-15.8136 1.532947,-0.7918 7.137637,-1.3731 13.250118,-1.3744 3.183721,-7e-4 5.478798,-0.1562 5.617666,-0.3809 0.129134,-0.209 0.02993,-2.4258 -0.220504,-4.9263 l -0.45529,-4.5464 -1.558866,-0.917 c -3.215974,-1.8919 -4.45442,-4.1934 -5.181615,-9.6297 -0.588502,-4.3994 -0.274755,-9.0207 0.748626,-11.0267 1.663307,-3.2603 5.481249,-5.0948 10.650112,-5.1172 3.642395,-0.016 4.952068,0.4736 6.652851,2.4859 3.384813,4.0047 4.515453,12.7489 2.372515,18.3488 -1.178081,3.0785 -3.746915,5.7211 -5.895352,6.0646 -2.572081,0.4113 -2.691581,0.6371 -2.29356,4.3334 0.190951,1.7734 0.469184,3.651 0.618293,4.1725 l 0.271117,0.9483 5.869934,0.017 c 6.387436,0.019 8.470316,0.4075 9.805996,1.8293 l 0.85212,0.907 -0.12191,15.5027 c -0.14053,17.8708 0.10391,16.4412 -4.3528,25.4569 -1.39063,2.8131 -2.38461,5.2796 -2.25928,5.6062 0.25364,0.661 0.77121,0.6338 11.9977,-0.6308 3.65092,-0.4112 8.08893,-0.9058 9.86223,-1.099 4.15264,-0.4526 14.91424,-0.4503 16.87959,0 1.84621,0.4264 3.22419,1.9152 3.22419,3.4837 0,2.8499 -4.4207,4.9691 -12.89677,6.1824 -2.39917,0.3435 -5.2156,0.8631 -6.25872,1.1548 -1.04312,0.2917 -3.59918,0.8981 -5.68014,1.3476 -2.08096,0.4495 -4.59771,1.1382 -5.59278,1.5304 -2.89225,1.14 -8.34525,2.5836 -11.35962,3.0071 -3.872925,0.5443 -3.907238,0.5617 -5.267991,2.6823 -2.035461,3.172 -4.33621,3.8161 -6.583326,1.8431 z m -1.460054,-6.8066 c 1.187151,-0.4173 2.450885,-0.7586 2.808308,-0.7586 1.139728,0 1.841991,-1.095 1.841991,-2.872 0,-0.9239 -0.170688,-1.6798 -0.379316,-1.6798 -0.208624,0 -0.379317,0.4037 -0.379317,0.8971 0,1.3637 -1.388359,2.896 -2.623952,2.896 -1.406601,0 -2.326546,-1.1052 -2.580191,-3.0999 -0.251585,-1.9784 -0.679629,-2.5898 -1.813213,-2.5898 -1.318868,0 -1.716213,0.7488 -1.315166,2.4785 0.191824,0.8274 0.352848,2.2212 0.357828,3.0975 0.0063,1.1104 0.210218,1.7105 0.672855,1.9799 0.896621,0.5222 0.945894,0.5172 3.410177,-0.3489 z m -9.462392,-3.0926 c 0.170146,-0.8933 -2.013351,-3.2373 -3.449656,-3.7033 -3.162343,-1.026 -19.992581,-1.7153 -19.424134,-0.7955 0.545245,0.8822 11.369594,3.7307 18.020655,4.7423 3.942062,0.5995 4.6998,0.5615 4.853135,-0.2435 z m 27.183483,-0.7205 c 1.60129,-0.4393 3.54006,-1.0617 4.3084,-1.3832 0.76834,-0.3215 3.68732,-1.1617 6.48663,-1.8671 2.79931,-0.7054 5.17478,-1.3677 5.27882,-1.4717 0.57928,-0.5793 -0.89118,-0.5469 -6.82375,0.1506 -3.61859,0.4255 -8.77301,0.9505 -11.45426,1.1667 -2.68125,0.2162 -5.028268,0.4879 -5.215601,0.6036 -0.411259,0.2542 -0.457376,3.333 -0.05611,3.746 0.42323,0.4356 4.170221,-0.038 7.475871,-0.9449 z m -11.326619,-8.1093 c 0.426265,-0.2985 1.265089,-1.7068 1.864053,-3.1293 0.598963,-1.4226 1.896871,-4.1685 2.884239,-6.1021 3.448577,-6.7533 3.393357,-6.3843 3.279807,-21.9152 l -0.0997,-13.6388 -4.551799,0 c -2.503485,0 -4.850506,0.1226 -5.215602,0.2725 -0.621396,0.2552 -0.663804,1.6739 -0.663804,22.209 0,22.1702 0.03906,22.8468 1.31907,22.8468 0.224794,0 0.757472,-0.2443 1.183736,-0.5429 z m -8.235872,-0.3532 c 0.310547,-0.3742 0.401863,-6.5233 0.330935,-22.2849 l -0.09796,-21.768 -7.446117,-0.1027 c -4.396911,-0.061 -7.8616,0.055 -8.46073,0.283 l -1.014615,0.3858 0.115767,14.3206 0.115768,14.3207 1.614287,3.7633 c 1.270843,2.9628 5.071891,9.7751 6.048525,10.8403 0.165158,0.1802 4.024078,0.5651 6.989259,0.6973 0.768059,0.034 1.565481,-0.167 1.804879,-0.4554 z"
       style="fill:#171717" />
  </g>
</svg>
