<?xml version="1.0" encoding="UTF-8" standalone="no"?>
<!-- Created with Inkscape (http://www.inkscape.org/) -->

<svg
   xmlns:dc="http://purl.org/dc/elements/1.1/"
   xmlns:cc="http://creativecommons.org/ns#"
   xmlns:rdf="http://www.w3.org/1999/02/22-rdf-syntax-ns#"
   xmlns:svg="http://www.w3.org/2000/svg"
   xmlns="http://www.w3.org/2000/svg"
   xmlns:sodipodi="http://sodipodi.sourceforge.net/DTD/sodipodi-0.dtd"
   xmlns:inkscape="http://www.inkscape.org/namespaces/inkscape"
   width="407.65369"
   height="168.2657"
   id="svg2"
   version="1.1"
   inkscape:version="0.48.4 r9939"
   sodipodi:docname="New document 1">
  <defs
     id="defs4" />
  <sodipodi:namedview
     id="base"
     pagecolor="#ffffff"
     bordercolor="#666666"
     borderopacity="1.0"
     inkscape:pageopacity="0.0"
     inkscape:pageshadow="2"
     inkscape:zoom="1.0103912"
     inkscape:cx="404.32005"
     inkscape:cy="-34.416129"
     inkscape:document-units="px"
     inkscape:current-layer="layer1"
     showgrid="false"
     fit-margin-top="0"
     fit-margin-left="0"
     fit-margin-right="0"
     fit-margin-bottom="0"
     inkscape:window-width="1330"
     inkscape:window-height="747"
     inkscape:window-x="36"
     inkscape:window-y="21"
     inkscape:window-maximized="1" />
  <metadata
     id="metadata7">
    <rdf:RDF>
      <cc:Work
         rdf:about="">
        <dc:format>image/svg+xml</dc:format>
        <dc:type
           rdf:resource="http://purl.org/dc/dcmitype/StillImage" />
        <dc:title></dc:title>
      </cc:Work>
    </rdf:RDF>
  </metadata>
  <g
     inkscape:label="Layer 1"
     inkscape:groupmode="layer"
     id="layer1"
     transform="translate(-382.84278,-459.51967)">
    <path
       inkscape:connector-curvature="0"
       id="path2998"
       d="m 473.21428,626.89337 c -4.95,-0.70124 -13.275,-2.2311 -18.5,-3.39967 -11.34194,-2.53662 -30.35153,-5.90875 -38,-6.74086 -3.025,-0.32911 -7.525,-1.20297 -10,-1.94191 -2.475,-0.73895 -7.82358,-1.58723 -11.88573,-1.88506 -5.77406,-0.42335 -7.90164,-1.02619 -9.75,-2.76263 -3.04388,-2.85958 -2.9873,-4.93855 0.21629,-7.94818 2.30601,-2.16637 3.44976,-2.41994 10.75,-2.38328 4.7119,0.0237 10.28558,0.72893 13.16944,1.66639 2.75,0.89394 7.925,1.91417 11.5,2.26717 3.575,0.353 8.975,1.24865 12,1.99033 3.025,0.74169 8.2,1.64935 11.5,2.01703 3.3,0.36769 10.5,1.8668 16,3.33138 9.25403,2.46422 11.41734,2.65548 29,2.56391 10.45,-0.0544 35.2,-0.58784 55,-1.18537 34.23602,-1.03318 36.68183,-1.23524 49.91507,-4.12375 12.10347,-2.6419 15.61861,-3.90283 27,-9.68524 19.20826,-9.75892 22.23041,-12.09249 31.12607,-24.03418 3.88656,-5.21739 6.76267,-7.92166 10.63544,-10 l 5.30826,-2.8487 3.84213,-15 c 4.036,-15.7569 4.55481,-21.46266 3.20132,-35.20717 -0.66095,-6.71183 -1.2382,-8.61113 -3.16825,-10.42431 -1.29802,-1.21943 -2.36004,-2.9527 -2.36004,-3.8517 0,-3.53672 -3.27602,-5.16104 -24,-11.89968 -11.825,-3.84504 -24.65,-8.13275 -28.5,-9.52825 -6.38176,-2.31316 -8.41313,-2.53952 -23,-2.56288 -18.22878,-0.0292 -36.35142,2.42966 -46.74698,6.34253 -3.48571,1.31202 -8.34361,2.71637 -10.79534,3.12078 -2.45172,0.40441 -9.5864,2.28137 -15.85484,4.17101 -6.26844,1.88964 -14.92227,4.05111 -19.23072,4.80327 -8.6885,1.51681 -13.98901,4.15852 -28.52388,14.21599 -9.82958,6.80162 -15.59531,12.51299 -14.77916,14.63983 0.48346,1.25988 30.93576,16.74193 32.84886,16.70047 0.50486,-0.0109 5.67986,2.18348 11.5,4.87649 16.33879,7.56006 28.52826,9.85382 61.58206,11.58824 14.85,0.77921 30.15,2.08422 34,2.90002 16.2364,3.44042 42.16148,9.76859 44.18405,10.78508 1.20123,0.60371 2.69919,2.34128 3.32879,3.86128 1.59167,3.84262 -0.60492,7.76516 -6.96139,12.43123 -5.39876,3.96305 -23.35592,9.98246 -38.55145,12.92281 -4.4,0.8514 -11.15,2.20215 -15,3.00166 -13.61631,2.82764 -31.05775,3.89821 -44.56668,2.73553 -6.91167,-0.59488 -14.56167,-1.79758 -17,-2.67269 -2.43832,-0.8751 -7.80832,-2.18513 -11.93332,-2.91117 -7.36092,-1.29561 -24.69637,-4.60648 -44.5,-8.499 -23.54849,-4.62859 -28.8344,-5.34924 -44.28898,-6.03801 -15.1232,-0.67401 -16.46511,-0.89143 -18.75,-3.03798 -3.13958,-2.94948 -3.10911,-5.0058 0.11912,-8.03907 2.48009,-2.3303 3.12964,-2.42431 16.75,-2.42431 10.3899,0 17.23761,0.58254 25.66986,2.18376 6.325,1.20107 14.2,2.66409 17.5,3.25115 3.3,0.58705 14.325,2.68427 24.5,4.66047 10.175,1.97621 21.875,4.19384 26,4.92808 4.125,0.73424 9.525,2.09522 12,3.02439 6.00479,2.25434 33.50991,3.17999 45.16458,1.51996 19.11363,-2.72246 46.10617,-9.07884 47.3926,-11.16032 1.02315,-1.65551 0.18174,-2.00136 -12.26817,-5.04257 -8.8536,-2.16272 -16.02193,-3.12428 -28.78901,-3.86175 -30.32305,-1.75157 -44.70167,-3.03408 -51.41572,-4.58607 -16.57085,-3.83043 -20.11529,-4.91869 -28.08428,-8.62281 -4.675,-2.17301 -11.2,-4.97866 -14.5,-6.23478 -10.28295,-3.91411 -36.44617,-17.67561 -38.45149,-20.22496 -4.61278,-5.8642 -2.68716,-13.99243 5.24933,-22.15799 10.10954,-10.40132 35.09914,-25.28693 45.70216,-27.22349 3.575,-0.65295 10.55,-2.31843 15.5,-3.70106 4.95,-1.38264 13.05,-3.50295 18,-4.7118 4.95,-1.20886 11.65969,-3.19563 14.91042,-4.41505 3.25073,-1.21942 11.57573,-3.10573 18.5,-4.1918 25.31933,-3.97133 46.12649,-3.55775 58.71968,1.16715 10.71185,4.01904 27.71554,9.73431 39.78791,13.37349 l 11.91802,3.59264 3.12959,-3.03332 c 1.72128,-1.66832 3.81723,-3.03332 4.65767,-3.03332 2.51876,0 5.62129,4.22809 6.34064,8.64095 0.77005,4.72391 1.79986,5.78319 13.42119,13.80526 11.82575,8.16319 17.10957,10.32116 29.54592,12.06692 5.90642,0.82911 11.56173,1.94782 12.56735,2.48601 1.00563,0.53819 5.80204,1.90506 10.6587,3.03749 10.5402,2.45765 15.77853,5.33856 23.97793,13.18709 16.40266,15.70073 16.14972,41.22745 -0.49247,49.6996 -5.95683,3.03249 -19.98571,7.03545 -30.14255,8.60078 -16.53725,2.54867 -45.37516,1.49285 -53.40249,-1.95518 -4.34442,-1.86609 -9.57037,-7.31236 -11.78082,-12.2775 -2.46058,-5.52698 -3.32471,-5.91125 -6.23634,-2.77329 -6.87453,7.40893 -7.97494,8.48187 -8.69898,8.48187 -0.43191,0 -2.25072,2.1375 -4.04181,4.75 -8.58452,12.52145 -16.27724,18.49779 -37.48011,29.11761 -12.01307,6.01695 -15.59133,7.30723 -26.85945,9.68524 -19.8676,4.19283 -20.47093,4.24624 -60.5,5.3559 -20.625,0.57176 -41.775,1.24865 -47,1.50422 -5.225,0.25556 -13.55,-0.1091 -18.5,-0.81035 z m 219.88731,-80.85262 c 3.5237,-2.3375 9.22118,-5.825 12.66107,-7.75 8.90601,-4.98391 17.64532,-17 12.3641,-17 -1.98641,0 -13.36119,-6.21815 -19.64314,-10.73814 -2.60186,-1.87209 -5.12348,-3.16102 -5.6036,-2.86429 -0.48012,0.29673 -1.17478,4.15879 -1.54369,8.58236 -0.36891,4.42357 -1.78479,13.30374 -3.1464,19.73371 -2.52414,11.91985 -2.85301,14.28636 -1.98537,14.28636 0.26966,0 3.37332,-1.9125 6.89703,-4.25 z"
       style="fill:#171717" />
  </g>
</svg>
