<?xml version="1.0" encoding="UTF-8" standalone="no"?>
<!-- Created with Inkscape (http://www.inkscape.org/) -->

<svg
   xmlns:dc="http://purl.org/dc/elements/1.1/"
   xmlns:cc="http://creativecommons.org/ns#"
   xmlns:rdf="http://www.w3.org/1999/02/22-rdf-syntax-ns#"
   xmlns:svg="http://www.w3.org/2000/svg"
   xmlns="http://www.w3.org/2000/svg"
   xmlns:sodipodi="http://sodipodi.sourceforge.net/DTD/sodipodi-0.dtd"
   xmlns:inkscape="http://www.inkscape.org/namespaces/inkscape"
   width="207.9433"
   height="106.29921"
   id="svg3061"
   version="1.1"
   inkscape:version="0.48.4 r9939"
   sodipodi:docname="New document 7">
  <defs
     id="defs3063" />
  <sodipodi:namedview
     id="base"
     pagecolor="#ffffff"
     bordercolor="#666666"
     borderopacity="1.0"
     inkscape:pageopacity="0.0"
     inkscape:pageshadow="2"
     inkscape:zoom="0.7"
     inkscape:cx="89.449034"
     inkscape:cy="73.818745"
     inkscape:document-units="px"
     inkscape:current-layer="layer1"
     showgrid="false"
     fit-margin-top="0"
     fit-margin-left="0"
     fit-margin-right="0"
     fit-margin-bottom="0"
     inkscape:window-width="1330"
     inkscape:window-height="747"
     inkscape:window-x="36"
     inkscape:window-y="21"
     inkscape:window-maximized="1" />
  <metadata
     id="metadata3066">
    <rdf:RDF>
      <cc:Work
         rdf:about="">
        <dc:format>image/svg+xml</dc:format>
        <dc:type
           rdf:resource="http://purl.org/dc/dcmitype/StillImage" />
        <dc:title></dc:title>
      </cc:Work>
    </rdf:RDF>
  </metadata>
  <g
     inkscape:label="Layer 1"
     inkscape:groupmode="layer"
     id="layer1"
     transform="translate(-832.39244,-739.76277)">
    <path
       inkscape:connector-curvature="0"
       id="path3082"
       d="m 1020.0389,845.39993 c -1.6914,-0.7381 -3.1267,-2.40615 -9.1155,-10.59368 -2.5816,-3.52931 -5.0693,-6.7231 -5.5284,-7.09731 -0.459,-0.37421 -2.2233,-2.74619 -3.9206,-5.27106 -1.69723,-2.52487 -4.80935,-6.75639 -6.91571,-9.40337 -4.49117,-5.64382 -13.11956,-14.66728 -14.02508,-14.66728 -0.71499,0 -0.6439,-0.19296 -1.88745,5.12494 -2.85696,12.21718 -9.01782,20.92061 -17.83684,25.19812 -7.23399,3.50871 -15.3048,4.44139 -41.79001,4.82937 -13.11195,0.19207 -17.46442,0.0963 -22.68846,-0.49921 -3.55525,-0.40528 -9.24858,-0.94488 -12.65185,-1.1991 -3.40327,-0.25422 -8.66286,-0.76515 -11.68799,-1.13542 -3.02512,-0.37026 -8.04541,-0.67751 -11.15618,-0.68279 -5.10224,-0.009 -6.04457,0.12449 -9.62541,1.35995 -4.2455,1.46478 -13.6381,3.67234 -15.62488,3.67234 -3.36005,0 -4.37926,-3.48538 -1.53964,-5.26508 1.39616,-0.87503 1.45852,-1.03279 1.20743,-3.05454 -0.23997,-1.93216 -0.15311,-2.20502 0.92729,-2.91292 0.65563,-0.42959 3.10304,-1.34186 5.43868,-2.02726 2.33564,-0.68541 5.5873,-1.78356 7.22591,-2.44034 5.55311,-2.22576 7.41004,-2.33473 29.72451,-1.74435 13.08688,0.34624 22.2002,0.79308 25.27779,1.23941 5.43904,0.78879 24.23277,1.46657 41.84745,1.50919 9.74902,0.0236 12.06677,0.15347 13.20055,0.73976 1.88924,0.97697 2.68342,0.60617 5.76465,-2.69161 4.8293,-5.16866 8.34248,-13.69577 8.75041,-21.23884 0.12485,-2.30872 0.0947,-4.72509 -0.0672,-5.36972 -0.17431,-0.6946 -1.60135,-2.2282 -3.50319,-3.76482 -1.82034,-1.47076 -3.33107,-3.07908 -3.49109,-3.71654 -0.45289,-1.80462 0.49525,-3.24373 2.49129,-3.78121 2.39196,-0.64409 3.49737,-1.90915 3.10974,-3.55885 -0.50167,-2.13468 -3.06693,-8.31293 -3.65394,-8.80008 -0.35894,-0.2979 -1.57981,-0.30809 -3.50878,-0.0293 -1.62711,0.23515 -4.22945,0.4317 -5.78299,0.43677 -5.22948,0.0171 -10.753,-3.92311 -12.05091,-8.59647 -0.69395,-2.4987 -0.58312,-9.21386 0.19512,-11.8224 0.92619,-3.10451 3.02774,-5.47124 6.34506,-7.14584 2.45778,-1.24066 3.10791,-1.37957 5.33784,-1.14041 4.09423,0.4391 7.72736,1.56637 12.70842,3.94312 8.77502,4.18707 10.77747,6.23652 10.77747,11.03042 0,3.51829 -1.48396,6.15672 -4.92339,8.75352 -1.66827,1.25955 -2.49936,2.21422 -2.49422,2.86517 0.016,2.04984 3.12349,8.70222 4.72804,10.1222 0.86766,0.76787 2.64167,3.14933 3.94225,5.29213 3.53999,5.83251 10.18798,15.34154 12.94713,18.5191 4.06768,4.68467 19.54178,18.74023 23.06418,20.94989 1.1628,0.72942 2.2951,0.86297 7.3337,0.86503 7.3641,0.003 9.167,0.6342 9.167,3.20947 0,1.3703 -0.2339,1.72484 -1.6042,2.43129 -1.3838,0.71342 -2.5491,0.80545 -8.4795,0.66971 -7.8881,-0.18055 -7.7408,-0.12866 -13.2816,-4.68075 -5.621,-4.61805 -5.8415,-4.10603 -0.888,2.06251 1.9124,2.38147 4.8142,6.23603 6.4484,8.5657 1.6342,2.32967 3.4155,4.54695 3.9585,4.92729 0.7817,0.54747 2.5362,0.69153 8.4226,0.69153 7.1243,0 7.4872,0.0446 8.6761,1.06732 1.5737,1.35364 1.2637,3.17205 -0.7152,4.19539 -1.7949,0.92818 -16.4813,0.97553 -18.5794,0.0599 z m -96.11449,-17.99816 c 3.8123,-0.165 6.84183,-0.44502 6.73228,-0.62225 -0.1095,-0.17722 -4.48498,-0.43741 -9.72326,-0.57819 -5.23823,-0.14077 -12.72111,-0.66771 -16.62857,-1.17098 -7.39457,-0.9524 -28.07641,-1.66847 -30.25126,-1.0474 -1.57452,0.44963 7.10382,1.88543 11.39605,1.88543 1.75292,0 5.62959,0.30587 8.61482,0.67971 9.15927,1.14702 17.54437,1.38674 29.85994,0.85368 z"
       style="fill:#181818" />
  </g>
</svg>
