<?xml version="1.0" encoding="UTF-8" standalone="no"?>
<!-- Created with Inkscape (http://www.inkscape.org/) -->

<svg
   xmlns:dc="http://purl.org/dc/elements/1.1/"
   xmlns:cc="http://creativecommons.org/ns#"
   xmlns:rdf="http://www.w3.org/1999/02/22-rdf-syntax-ns#"
   xmlns:svg="http://www.w3.org/2000/svg"
   xmlns="http://www.w3.org/2000/svg"
   xmlns:sodipodi="http://sodipodi.sourceforge.net/DTD/sodipodi-0.dtd"
   xmlns:inkscape="http://www.inkscape.org/namespaces/inkscape"
   width="48.875633"
   height="106.29919"
   id="svg3080"
   version="1.1"
   inkscape:version="0.48.4 r9939"
   sodipodi:docname="hasta_uttanasana.svg">
  <defs
     id="defs3082" />
  <sodipodi:namedview
     id="base"
     pagecolor="#ffffff"
     bordercolor="#666666"
     borderopacity="1.0"
     inkscape:pageopacity="0.0"
     inkscape:pageshadow="2"
     inkscape:zoom="0.98994949"
     inkscape:cx="45.851936"
     inkscape:cy="272.40413"
     inkscape:document-units="cm"
     inkscape:current-layer="layer1"
     showgrid="false"
     fit-margin-top="0"
     fit-margin-left="0"
     fit-margin-right="0"
     fit-margin-bottom="0"
     inkscape:window-width="1330"
     inkscape:window-height="747"
     inkscape:window-x="36"
     inkscape:window-y="21"
     inkscape:window-maximized="1" />
  <metadata
     id="metadata3085">
    <rdf:RDF>
      <cc:Work
         rdf:about="">
        <dc:format>image/svg+xml</dc:format>
        <dc:type
           rdf:resource="http://purl.org/dc/dcmitype/StillImage" />
        <dc:title />
      </cc:Work>
    </rdf:RDF>
  </metadata>
  <g
     inkscape:label="Layer 1"
     inkscape:groupmode="layer"
     id="layer1"
     transform="translate(86.43714,-544.06431)">
    <path
       inkscape:connector-curvature="0"
       id="path3101"
       d="m -58.19338,650.18445 c -0.486575,-0.12549 -0.84452,-0.43993 -1.092305,-0.95955 -0.364205,-0.76374 -0.351719,-0.80778 1.056345,-3.7249 0.783699,-1.62361 1.600348,-3.56379 1.814775,-4.31149 0.440199,-1.53497 3.049254,-8.04559 4.727774,-11.79764 0.612457,-1.36905 1.593454,-4.08938 2.179991,-6.04516 1.401706,-4.67394 2.905224,-9.31493 4.108834,-12.68298 1.921678,-5.37739 3.127488,-9.31635 3.470853,-11.33807 0.192065,-1.13085 0.519717,-2.77606 0.728114,-3.656 0.31359,-1.32409 0.359701,-2.65227 0.267495,-7.70461 -0.126953,-6.95604 -0.05543,-6.64999 -2.466548,-10.55551 -2.893627,-4.68712 -5.273699,-7.93698 -7.063054,-9.64422 l -0.858779,-0.81938 -1.597705,0.44184 c -2.017672,0.55798 -6.99636,0.7655 -9.192047,0.38314 -2.0906,-0.36406 -4.40179,-1.30685 -5.153846,-2.10237 -0.734794,-0.77726 -1.173431,-2.30639 -0.973365,-3.39325 0.307061,-1.66808 2.192271,-4.04077 3.788406,-4.76802 0.394718,-0.17984 0.567517,-0.42776 0.520668,-0.74703 -0.102886,-0.70115 -5.337395,-4.16609 -7.6562,-5.06796 -1.043086,-0.4057 -3.406219,-1.32492 -5.251409,-2.04273 -1.845189,-0.7178 -4.272756,-1.52308 -5.394595,-1.78952 -3.775225,-0.89661 -5.016519,-2.01736 -3.696429,-3.33745 0.566244,-0.56625 1.521075,-0.60435 3.179542,-0.12688 0.663388,0.19099 1.98853,0.57015 2.944757,0.84259 0.956226,0.27243 3.917744,1.35141 6.581146,2.39773 5.077598,1.99474 7.086298,3.12122 11.119589,6.23589 3.592187,2.77403 4.029454,2.92843 9.048594,3.19511 3.890135,0.20669 4.642897,0.43899 5.604903,1.72965 0.682021,0.91503 0.666449,3.15041 -0.02959,4.24596 -1.172436,1.8454 -1.216774,1.61099 0.752136,3.97661 2.647843,3.18135 7.222082,10.31473 8.191678,12.77465 0.931912,2.36431 1.307937,11.7969 0.616326,15.4606 -0.1846,0.9779 -0.552755,2.96071 -0.818123,4.40625 -0.43895,2.3911 -1.707696,6.40348 -5.315787,16.81107 -0.587628,1.69502 -1.553701,4.80406 -2.146831,6.90899 -0.593129,2.10492 -1.674508,5.19862 -2.403064,6.87488 -2.407236,5.53858 -3.673234,8.65648 -4.596733,11.32083 -0.501741,1.44755 -1.130627,3.18034 -1.397524,3.85064 -0.266898,0.67031 -0.420291,1.28371 -0.340876,1.36313 0.07942,0.0794 1.540112,0.15004 3.245994,0.15695 3.676072,0.0149 6.563356,0.43261 7.24328,1.04793 0.617661,0.55898 0.613785,1.35365 -0.0094,1.91759 -0.452734,0.40971 -0.971822,0.44444 -6.751865,0.4516 -3.443784,0.004 -6.587112,-0.0762 -6.985173,-0.17891 z"
       style="fill:#171717" />
  </g>
</svg>
