<?xml version="1.0" encoding="UTF-8" standalone="no"?>
<!-- Created with Inkscape (http://www.inkscape.org/) -->

<svg
   xmlns:dc="http://purl.org/dc/elements/1.1/"
   xmlns:cc="http://creativecommons.org/ns#"
   xmlns:rdf="http://www.w3.org/1999/02/22-rdf-syntax-ns#"
   xmlns:svg="http://www.w3.org/2000/svg"
   xmlns="http://www.w3.org/2000/svg"
   xmlns:sodipodi="http://sodipodi.sourceforge.net/DTD/sodipodi-0.dtd"
   xmlns:inkscape="http://www.inkscape.org/namespaces/inkscape"
   width="480.57373"
   height="198.83664"
   id="svg3023"
   version="1.1"
   inkscape:version="0.48.4 r9939"
   sodipodi:docname="New document 4">
  <defs
     id="defs3025" />
  <sodipodi:namedview
     id="base"
     pagecolor="#ffffff"
     bordercolor="#666666"
     borderopacity="1.0"
     inkscape:pageopacity="0.0"
     inkscape:pageshadow="2"
     inkscape:zoom="1"
     inkscape:cx="6.8662779"
     inkscape:cy="35.568694"
     inkscape:document-units="px"
     inkscape:current-layer="layer1"
     showgrid="false"
     fit-margin-top="0"
     fit-margin-left="0"
     fit-margin-right="0"
     fit-margin-bottom="0"
     inkscape:window-width="1330"
     inkscape:window-height="747"
     inkscape:window-x="36"
     inkscape:window-y="21"
     inkscape:window-maximized="1" />
  <metadata
     id="metadata3028">
    <rdf:RDF>
      <cc:Work
         rdf:about="">
        <dc:format>image/svg+xml</dc:format>
        <dc:type
           rdf:resource="http://purl.org/dc/dcmitype/StillImage" />
        <dc:title></dc:title>
      </cc:Work>
    </rdf:RDF>
  </metadata>
  <g
     inkscape:label="Layer 1"
     inkscape:groupmode="layer"
     id="layer1"
     transform="translate(-617.21482,-428.61488)">
    <path
       inkscape:connector-curvature="0"
       id="path3046"
       d="m 648.06501,626.11855 c -4.67853,-0.68133 -9.90752,-1.96332 -11.61996,-2.84886 -5.15089,-2.66363 -11.63852,-10.84964 -15.29038,-19.29322 -4.11617,-9.51714 -4.96021,-17.05696 -2.75156,-24.57989 0.85906,-2.92606 1.8396,-7.1201 2.17899,-9.3201 1.19978,-7.77738 13.01652,-22.00835 21.48933,-25.87975 4.05961,-1.85492 6.89448,-2.09408 28.96736,-2.44376 26.86988,-0.42568 43.92382,0.8665 50.75597,3.84579 8.14946,3.55373 10.73429,11.95835 7.22054,23.47772 -1.17436,3.85 -2.37958,8.06463 -2.67826,9.36584 l -0.54305,2.36585 22.85218,-0.74511 22.85218,-0.74511 4.50595,-5.12073 c 2.47827,-2.81641 8.45722,-9.19871 13.28654,-14.18289 8.41944,-8.68942 8.78059,-9.24879 8.78059,-13.59996 0,-3.39968 0.71327,-5.52246 2.84386,-8.46365 5.19212,-7.16751 11.33149,-29.80906 11.53649,-42.54571 0.10656,-6.62086 0.45149,-8.02063 2.51861,-10.22098 1.31733,-1.40223 3.90397,-3.04747 5.74809,-3.65608 3.59697,-1.18711 3.62604,-1.25408 3.36677,-7.75656 -0.20766,-5.20806 1.62506,-8.27705 6.70631,-11.23008 2.18202,-1.26811 5.49732,-4.78976 7.84265,-8.33078 4.93735,-7.4545 10.34132,-11.66094 25.1523,-19.57852 13.3838,-7.15464 16.77195,-7.6423 20.69603,-2.9788 4.96905,5.90538 2.27527,13.49181 -6.3538,17.89403 -2.03011,1.03569 -4.24719,2.55311 -4.92686,3.37205 -1.77321,2.13659 -0.20926,2.44517 18.36955,3.62442 20.40029,1.29487 26.4751,1.83805 40,3.57663 6.05,0.77771 16.4,2.09168 23,2.91994 6.6,0.82826 16.275,2.19702 21.5,3.0417 20.63587,3.33599 35.65677,5.45386 38.82197,5.47369 1.827,0.0115 5.202,-1.08049 7.5,-2.42652 2.2979,-1.34602 10.1772,-4.7165 17.5095,-7.48993 7.3323,-2.77343 14.5323,-5.89105 16,-6.92804 3.6968,-2.61193 17.8553,-9.59345 22.5358,-11.11228 4.7354,-1.53665 10.7989,-1.53902 13.6647,-0.005 2.7609,1.4776 4.9329,6.71567 4.2551,10.26158 -0.2921,1.52798 0.027,4.77221 0.7096,7.2094 1.1564,4.13034 1.0652,4.73066 -1.3432,8.84035 -4.8175,8.22044 -19.8309,20.99946 -42.5439,36.21225 -5.7147,3.82764 -12.2397,8.22966 -14.5,9.78227 -4.9095,3.37246 -5.7628,3.34202 -31.6096,-1.12782 -9.625,-1.66451 -21.1,-3.3136 -25.5,-3.66465 -4.39997,-0.35105 -14.74997,-1.71046 -22.99997,-3.02091 -8.25,-1.31044 -19.5,-2.67407 -25,-3.03028 -5.5,-0.35621 -14.95,-1.55006 -21,-2.65299 -13.48368,-2.45812 -28.24862,-3.47766 -29.67703,-2.04925 -0.70502,0.70502 3.80271,5.89977 14.32413,16.50728 16.97463,17.11352 26.92582,24.44304 37.48817,27.61183 3.53556,1.06069 10.90144,4.48343 16.36863,7.60609 5.46719,3.12265 13.0542,6.73105 16.86002,8.01865 12.88448,4.35912 28.92915,13.55732 36.93825,21.17611 3.7117,3.53086 4.1978,4.51224 4.1978,8.47386 0,3.37593 -0.5547,4.98296 -2.25,6.51857 -1.2375,1.12093 -11.475,6.93687 -22.75,12.92432 l -20.49997,10.88622 -12,-0.0363 c -7.48017,-0.0226 -19.15639,-1.05219 -31,-2.73342 -37.21262,-5.28242 -50.11875,-6.76463 -59,-6.77586 -4.95,-0.006 -17.325,-0.66074 -27.5,-1.45441 -10.175,-0.79367 -22.55,-1.45206 -27.5,-1.4631 l -9,-0.0201 -8.06133,5.77515 c -9.3235,6.67936 -20.2954,12.21106 -25.69679,12.95554 -4.76889,0.65731 -12.03822,-2.0375 -14.73113,-5.46098 -2.72331,-3.46213 -2.55733,-8.86796 0.45497,-14.81801 1.35615,-2.67873 2.27645,-5.05969 2.04512,-5.29103 -0.23134,-0.23133 -9.69492,-0.48284 -21.0302,-0.55891 l -20.60959,-0.13831 -2.58931,3.50986 c -4.51065,6.11428 -8.626,10.10797 -13.97073,13.55773 -15.92655,10.27979 -24.62928,12.00704 -45.31743,8.9942 z m 316.75971,-29.75497 c 5.63931,-2.89706 10.12546,-5.65085 9.96923,-6.11954 -0.38423,-1.1527 -32.67198,-12.97983 -45.72252,-16.74835 -5.775,-1.66761 -14.775,-5.10047 -20,-7.62859 -16.86933,-8.16221 -45.33658,-23.50562 -51.39372,-27.70041 -4.88986,-3.38641 -6.04248,-3.82686 -6.76709,-2.58592 -0.48035,0.82264 -3.16857,5.32071 -5.97382,9.99571 -2.80525,4.675 -6.10293,10.75 -7.32819,13.5 -2.90863,6.52825 -9.85634,17.8756 -14.28019,23.32313 -1.95714,2.41002 -3.12269,4.68814 -2.63386,5.14797 1.14979,1.08156 27.29977,3.0289 40.67389,3.0289 5.77724,0 16.51132,0.87879 23.85352,1.95287 7.3422,1.07408 16.27446,2.23424 19.84946,2.57815 6.23793,0.60008 31.62401,3.9974 41,5.48688 2.475,0.39318 5.4,0.78726 6.5,0.87572 1.1,0.0885 6.61398,-2.20947 12.25329,-5.10652 z M 832.06456,526.09713 c 2.05424,-6.173 2.1054,-6.85069 0.62869,-8.3274 -2.21455,-2.21455 -2.91178,-1.10996 -5.55895,8.80675 -3.61101,13.52741 -3.59258,12.88302 -0.26803,9.37026 1.64695,-1.74018 3.95491,-6.11326 5.19829,-9.84961 z m 43.30513,-3.1882 c -1.99918,-3.05113 -12.85044,-11.33245 -14.84925,-11.33245 -3.45786,0 -1.80432,2.33668 5.60371,7.91879 8.88939,6.69836 12.19825,7.92007 9.24554,3.41366 z m 156.24771,-26.40679 c 0.3652,-0.59089 5.6792,-4.33649 11.809,-8.32355 17.5841,-11.43741 17.8621,-13.47168 0.9151,-6.69567 -5.3735,2.14854 -12.4033,5.29854 -15.6216,7 -8.4977,4.49253 -12.4987,4.3401 -51.21532,-1.95119 -9.93677,-1.61468 -24.33677,-3.62343 -32,-4.46388 -7.66323,-0.84046 -16.40815,-1.96884 -19.43315,-2.50753 -6.94881,-1.23744 -38.61229,-3.9543 -46.28138,-3.97114 -4.2967,-0.009 -5.93346,0.38358 -6.37354,1.53043 -0.32569,0.84872 -0.40608,1.7292 -0.17865,1.95663 0.22742,0.22743 7.14552,0.68663 15.37354,1.02045 8.22801,0.33383 20.36003,1.46186 26.96003,2.50675 6.6,1.04488 17.43133,2.36206 24.06961,2.92706 6.63829,0.565 17.43829,1.91722 24,3.00493 6.56172,1.08771 17.10539,2.46691 23.43036,3.06488 6.325,0.59798 17.35,2.12286 24.5,3.38863 15.1731,2.68609 19.1362,2.98525 20.046,1.5132 z"
       style="fill:#000000" />
  </g>
</svg>
