<?xml version="1.0" encoding="UTF-8" standalone="no"?>
<!-- Created with Inkscape (http://www.inkscape.org/) -->

<svg
   xmlns:dc="http://purl.org/dc/elements/1.1/"
   xmlns:cc="http://creativecommons.org/ns#"
   xmlns:rdf="http://www.w3.org/1999/02/22-rdf-syntax-ns#"
   xmlns:svg="http://www.w3.org/2000/svg"
   xmlns="http://www.w3.org/2000/svg"
   xmlns:sodipodi="http://sodipodi.sourceforge.net/DTD/sodipodi-0.dtd"
   xmlns:inkscape="http://www.inkscape.org/namespaces/inkscape"
   width="354.33066"
   height="171.62668"
   id="svg2"
   version="1.1"
   inkscape:version="0.48.4 r9939"
   sodipodi:docname="shavasana.svg">
  <defs
     id="defs4" />
  <sodipodi:namedview
     id="base"
     pagecolor="#ffffff"
     bordercolor="#666666"
     borderopacity="1.0"
     inkscape:pageopacity="0.0"
     inkscape:pageshadow="2"
     inkscape:zoom="1.4"
     inkscape:cx="245.50481"
     inkscape:cy="119.16413"
     inkscape:document-units="px"
     inkscape:current-layer="layer1"
     showgrid="false"
     inkscape:window-width="1330"
     inkscape:window-height="747"
     inkscape:window-x="36"
     inkscape:window-y="21"
     inkscape:window-maximized="1"
     fit-margin-top="0"
     fit-margin-left="0"
     fit-margin-right="0"
     fit-margin-bottom="0" />
  <metadata
     id="metadata7">
    <rdf:RDF>
      <cc:Work
         rdf:about="">
        <dc:format>image/svg+xml</dc:format>
        <dc:type
           rdf:resource="http://purl.org/dc/dcmitype/StillImage" />
      </cc:Work>
    </rdf:RDF>
  </metadata>
  <g
     inkscape:label="Layer 1"
     inkscape:groupmode="layer"
     id="layer1"
     transform="translate(-314.35792,-558.99464)">
    <path
       style="fill:#000000"
       d="m 495.0661,730.07024 c -1.49566,-0.51418 -3.26568,-1.41595 -3.93338,-2.00395 -0.6677,-0.58799 -3.16067,-2.0456 -5.53994,-3.23913 -2.37926,-1.19354 -7.24594,-4.35517 -10.81483,-7.02586 -7.33387,-5.48811 -10.78824,-7.17248 -18.02472,-8.78901 -2.77581,-0.62007 -7.59921,-2.40177 -10.71867,-3.95933 -3.2823,-1.63887 -8.44597,-3.43545 -12.25681,-4.2645 -3.62179,-0.78791 -9.34285,-2.52541 -12.71347,-3.86112 -4.32119,-1.71239 -8.25454,-2.66154 -13.3383,-3.21862 -13.77645,-1.50963 -17.77882,-3.21029 -21.92541,-9.31642 -5.31131,-7.82125 -8.61184,-9.4931 -18.01367,-9.12465 -6.18694,0.24246 -6.55095,0.58857 -6.78837,6.45461 -0.19872,4.90985 -1.91792,7.07016 -7.57666,9.52063 -2.2528,0.97556 -6.20488,2.80275 -8.78242,4.06042 -3.40047,1.65921 -5.97238,2.36156 -9.37285,2.55958 -4.42562,0.25771 -4.90712,0.12338 -8.65187,-2.41389 -5.98678,-4.05636 -7.77103,-5.98766 -10.11496,-10.9486 -1.72962,-3.66074 -2.14185,-5.48984 -2.14185,-9.50354 0,-4.78698 0.094,-5.05284 2.54855,-7.20796 1.4017,-1.23071 3.17178,-2.23766 3.9335,-2.23766 0.76173,0 3.50378,-2.15033 6.09346,-4.77852 4.28164,-4.3453 4.91108,-4.73801 6.94293,-4.33164 1.65285,0.33057 3.03241,-0.0208 5.30037,-1.34988 2.52917,-1.4822 4.00158,-1.79469 8.41003,-1.78491 8.96005,0.0199 13.63173,3.98302 13.63432,11.56641 6.1e-4,1.80779 0.40667,3.8177 0.90235,4.46646 0.79848,1.04507 1.16841,1.06475 3.24445,0.1726 2.81676,-1.21045 2.87829,-1.80761 0.54075,-5.24762 -1.07367,-1.58004 -1.80445,-3.67811 -1.80736,-5.18891 -0.004,-2.25348 0.72511,-3.24084 6.54082,-8.85334 3.60015,-3.47435 7.46312,-6.7914 8.5844,-7.37123 3.66874,-1.89718 7.09154,-6.66533 7.96674,-11.09814 0.95568,-4.84036 1.72722,-7.55246 3.92202,-13.78655 0.90745,-2.57753 2.71754,-8.0931 4.02242,-12.25681 4.26845,-13.6201 6.67451,-17.67872 10.18564,-17.18142 2.23441,0.31647 2.55177,2.83369 0.73597,5.83741 -0.77524,1.2824 -2.78391,6.71166 -4.4637,12.065 -1.67979,5.35334 -3.80961,11.72635 -4.73293,14.16223 -0.92332,2.43588 -2.22317,7.14033 -2.88858,10.45434 -1.97812,9.85194 -2.34699,10.34059 -16.34937,21.65861 -4.00858,3.2401 -6.30866,5.60893 -6.30866,6.49721 0,2.11216 3.40261,6.13711 5.93425,7.01964 1.9977,0.6964 2.99733,0.43352 9.14932,-2.40607 3.79863,-1.75334 8.04215,-3.41379 9.43005,-3.68988 5.92632,-1.17889 14.03622,-4.92667 17.33207,-8.00956 3.813,-3.56661 6.01619,-4.61252 14.0572,-6.67329 3.15791,-0.80932 9.14834,-2.75125 13.31205,-4.31541 4.32874,-1.62616 10.65765,-3.33368 14.78027,-3.98767 12.633,-2.00403 13.30317,-2.35665 19.61912,-10.32281 1.27347,-1.60619 6.14015,-5.56664 10.81484,-8.801 14.82654,-10.25828 22.18492,-15.93001 31.19279,-24.04292 5.12863,-4.61908 15.15146,-10.69937 20.87966,-12.66652 4.45152,-1.52871 5.10917,-2.612 4.61062,-7.5946 -0.24287,-2.42727 -1.04463,-5.61697 -1.7817,-7.08821 -1.67368,-3.34079 -1.67673,-4.31997 -0.0198,-6.36619 1.6816,-2.07668 4.56124,-1.51713 5.76269,1.11976 1.19859,2.63062 3.24441,17.34693 2.70841,19.48254 -0.55634,2.21662 -5.44855,5.84882 -9.2602,6.87519 -4.73723,1.2756 -14.01155,6.83691 -19.50482,11.69597 -9.5382,8.43699 -21.5371,17.72755 -30.77468,23.82833 -6.77266,4.47288 -10.81483,8.29825 -10.81483,10.23478 0,0.56851 1.62948,1.52388 3.78519,2.21928 3.19044,1.02918 8.71314,1.30852 35.14821,1.7778 22.31654,0.39616 33.37925,0.87708 38.35307,1.66727 3.84453,0.61079 13.57788,1.44292 21.62967,1.84919 8.05178,0.40627 18.55037,1.09031 23.33019,1.52008 7.27705,0.65432 10.12941,0.58498 17.53662,-0.42627 6.46543,-0.88268 12.08187,-1.12136 20.86996,-0.88692 10.93603,0.29175 12.67626,0.52424 19.23382,2.56968 7.70505,2.40337 10.66747,4.57352 9.95617,7.29351 -0.64506,2.46669 -2.57834,2.3435 -11.82633,-0.75361 -11.33776,-3.79694 -19.81738,-4.38889 -34.84113,-2.43217 -6.89233,0.89766 -12.04011,1.15083 -17.204,0.84611 -4.05282,-0.23916 -16.12878,-0.93498 -26.83547,-1.54627 -10.70668,-0.61127 -21.25115,-1.43405 -23.43214,-1.82838 -7.35721,-1.33022 -24.75592,-2.14189 -46.14355,-2.15264 -15.74601,-0.008 -22.56424,-0.2816 -26.25538,-1.05389 -8.5839,-1.79598 -28.73184,0.88766 -40.07534,5.33791 -3.76716,1.47792 -9.89698,3.43512 -13.62181,4.34934 -5.77046,1.41628 -7.31715,2.1291 -10.45434,4.81805 -4.59005,3.93423 -11.98132,7.53973 -19.69501,9.60729 -5.98893,1.60528 -12.46597,5.02873 -12.46597,6.58892 0,1.0356 4.90342,7.47235 7.701,10.10915 2.59188,2.44292 5.73926,3.31492 16.45213,4.55822 6.72335,0.78028 9.76015,1.5088 13.62397,3.26831 2.73466,1.24531 7.92578,2.90382 11.53582,3.68556 3.64867,0.79012 9.60564,2.83368 13.41311,4.60142 3.76717,1.74902 8.3094,3.40901 10.09385,3.68886 5.65203,0.88638 13.07861,4.48417 19.80357,9.59377 3.58188,2.7215 8.45919,5.93484 10.83846,7.14076 7.65554,3.88015 11.53582,6.80654 11.53582,8.69997 0,2.2993 -2.25052,3.04001 -5.66745,1.86532 z"
       id="path3009"
       inkscape:connector-curvature="0" />
  </g>
</svg>
