<?xml version="1.0" encoding="UTF-8" standalone="no"?>
<!-- Created with Inkscape (http://www.inkscape.org/) -->

<svg
   xmlns:dc="http://purl.org/dc/elements/1.1/"
   xmlns:cc="http://creativecommons.org/ns#"
   xmlns:rdf="http://www.w3.org/1999/02/22-rdf-syntax-ns#"
   xmlns:svg="http://www.w3.org/2000/svg"
   xmlns="http://www.w3.org/2000/svg"
   xmlns:sodipodi="http://sodipodi.sourceforge.net/DTD/sodipodi-0.dtd"
   xmlns:inkscape="http://www.inkscape.org/namespaces/inkscape"
   width="70.590073"
   height="106.29922"
   id="svg2"
   version="1.1"
   inkscape:version="0.48.4 r9939"
   sodipodi:docname="vajrasana.svg">
  <defs
     id="defs4" />
  <sodipodi:namedview
     id="base"
     pagecolor="#ffffff"
     bordercolor="#666666"
     borderopacity="1.0"
     inkscape:pageopacity="0.0"
     inkscape:pageshadow="2"
     inkscape:zoom="5.8325924"
     inkscape:cx="35.295042"
     inkscape:cy="53.14961"
     inkscape:document-units="cm"
     inkscape:current-layer="layer1"
     showgrid="false"
     fit-margin-top="0"
     fit-margin-left="0"
     fit-margin-right="0"
     fit-margin-bottom="0"
     inkscape:window-width="1330"
     inkscape:window-height="747"
     inkscape:window-x="36"
     inkscape:window-y="21"
     inkscape:window-maximized="1" />
  <metadata
     id="metadata7">
    <rdf:RDF>
      <cc:Work
         rdf:about="">
        <dc:format>image/svg+xml</dc:format>
        <dc:type
           rdf:resource="http://purl.org/dc/dcmitype/StillImage" />
        <dc:title></dc:title>
      </cc:Work>
    </rdf:RDF>
  </metadata>
  <g
     inkscape:label="Layer 1"
     inkscape:groupmode="layer"
     id="layer1"
     transform="translate(412.02942,-514.13471)">
    <path
       inkscape:connector-curvature="0"
       id="path2998"
       d="m -348.18053,618.9666 c -2.62885,-1.12342 -4.06552,-1.50659 -6.52848,-1.74122 -1.73683,-0.16545 -4.6107,-0.76951 -6.38637,-1.34236 -1.77568,-0.57284 -4.58561,-1.22464 -6.24429,-1.44844 -1.65868,-0.2238 -4.21324,-0.59007 -5.67678,-0.81393 -1.57351,-0.24069 -7.30092,-0.41032 -14.01455,-0.41508 -11.53797,-0.008 -17.18908,0.39138 -20.10972,1.42184 -0.79466,0.28037 -1.95882,0.50977 -2.58703,0.50977 -2.41952,0 -3.09704,-2.54601 -1.23309,-4.63376 0.68133,-0.76315 1.01055,-1.4453 0.88699,-1.8379 -0.10806,-0.34338 -0.28606,-0.90971 -0.39554,-1.25853 -0.32237,-1.02703 1.12012,-2.45437 3.30751,-3.27277 2.22212,-0.8314 11.54942,-2.96924 14.59828,-3.34595 2.70422,-0.33413 3.59769,-0.89585 7.57485,-4.7623 2.48912,-2.41982 4.57018,-4.04444 7.12345,-5.56103 l 3.60705,-2.14251 -0.073,-4.59867 c -0.41275,-25.98462 0.012,-33.14732 2.02952,-34.22709 0.36183,-0.19364 1.06751,-0.35207 1.56819,-0.35207 l 0.91032,0 0,-4.43499 c 0,-5.15422 0.27548,-4.91049 -4.00501,-3.54346 -1.51976,0.48536 -3.5677,0.88247 -4.55097,0.88247 -1.50289,0 -1.95303,-0.16526 -2.82488,-1.03711 -0.57041,-0.5704 -1.05502,-1.32878 -1.07693,-1.68529 -0.0679,-1.10564 -0.38108,-15.43308 -0.38539,-17.63272 -0.005,-2.79709 0.64207,-3.6061 4.36974,-5.45939 3.7296,-1.85423 7.62433,-2.49709 11.27594,-1.86119 2.92279,0.50898 3.88547,1.02558 5.6529,3.03349 2.13705,2.42782 2.71807,4.47097 2.71954,9.56326 10e-4,4.00509 -0.0565,4.35585 -0.97281,5.91451 -0.96608,1.64341 -1.81168,2.45157 -4.1342,3.95114 l -1.20544,0.77831 0.0744,8.67347 c 0.0409,4.7704 0.12901,8.76189 0.19574,8.86997 0.0667,0.10808 0.30563,4.66697 0.53089,10.13087 0.42363,10.27553 1.54017,19.59327 3.71163,30.97427 0.49522,2.59553 1.00407,5.9622 1.13077,7.48148 0.33832,4.05668 -0.0167,4.47915 -4.64892,5.53204 -0.93648,0.21285 -0.58115,0.40001 3.01579,1.58845 2.7176,0.89791 5.07276,1.42529 7.0622,1.5814 2.31054,0.18133 3.82379,0.56951 6.69845,1.71832 4.02655,1.60913 5.75044,2.88436 5.75044,4.25382 0,1.14432 -1.04634,2.04776 -2.33413,2.01536 -0.57005,-0.0143 -2.55322,-0.67426 -4.40704,-1.46648 z m -19.61713,-14.16505 c 1.5203,-0.2207 2.97195,-0.56637 3.22589,-0.76816 0.55434,-0.4405 0.35139,-2.73208 -0.6792,-7.66922 -0.38337,-1.83659 -1.01591,-5.50876 -1.40563,-8.16037 -0.38973,-2.65162 -0.7771,-5.06061 -0.86083,-5.35332 -0.32708,-1.14346 -1.21666,-9.98821 -1.43619,-14.27955 -0.15411,-3.01237 -0.35559,-4.44581 -0.60336,-4.29268 -0.25628,0.15839 -0.27841,2.83444 -0.0711,8.60277 0.50985,14.18889 0.4545,16.85725 -0.37255,17.96056 -0.39028,0.52064 -2.38602,1.91076 -4.43499,3.08917 -2.7657,1.59061 -4.65164,3.03285 -7.32104,5.59861 -1.9776,1.90083 -4.09309,3.7499 -4.70108,4.10905 -2.38379,1.40814 -1.64512,1.5644 7.39525,1.5644 4.67537,0 9.74456,-0.18057 11.26486,-0.40126 z m -6.11475,-68.59456 c 3.30124,-0.95667 8.55845,-3.88216 9.7975,-5.45205 0.67472,-0.85487 0.73503,-1.31088 0.62068,-4.69292 -0.13602,-4.02274 -0.52425,-5.09095 -2.26472,-6.23135 -0.77641,-0.50873 -1.35261,-0.53961 -4.41413,-0.23659 -2.94874,0.29187 -3.72167,0.50146 -4.75461,1.28933 -0.6784,0.51744 -1.66199,1.10373 -2.18575,1.30286 l -0.95228,0.36206 0.29461,2.74287 c 0.16204,1.50858 0.3108,4.65878 0.33058,7.00045 0.0377,4.46742 0.0605,4.78979 0.33853,4.78979 0.0946,0 1.52994,-0.39351 3.18959,-0.87445 z"
       style="fill:#191919" />
    <path
       style="color:#000000;fill:#000000;fill-opacity:1;fill-rule:nonzero;stroke:#000000;stroke-width:0.30372867;stroke-linecap:butt;stroke-linejoin:miter;stroke-miterlimit:4;stroke-opacity:1;stroke-dasharray:none;stroke-dashoffset:0;marker:none;visibility:visible;display:inline;overflow:visible;enable-background:accumulate"
       d="M 34.75368,21.749043 C 34.6931,21.169424 34.641704,19.452778 34.63947,17.934273 34.63577,15.42286 34.55626,13.946422 34.203854,9.8455072 L 34.084878,8.4610173 34.664243,8.2269154 c 0.31865,-0.128756 1.187862,-0.6123107 1.931581,-1.0745661 1.663147,-1.0337209 2.207383,-1.230562 4.052681,-1.4657861 3.19221,-0.4069177 4.241916,-0.4335151 5.042507,-0.1277666 0.927867,0.3543558 2.061946,1.5473319 2.318164,2.4385557 0.236415,0.8223414 0.516576,3.9782457 0.515277,5.8043997 -0.0011,1.589421 -0.317718,2.444576 -1.215523,3.283326 -1.239383,1.157859 -5.023559,3.330446 -7.521889,4.318498 -0.981856,0.38831 -4.401426,1.399319 -4.732961,1.399319 -0.106786,0 -0.238574,-0.462336 -0.3004,-1.053852 z"
       id="path3023"
       inkscape:connector-curvature="0"
       transform="translate(-412.02942,514.13471)" />
  </g>
</svg>
