<?xml version="1.0" encoding="UTF-8" standalone="no"?>
<!-- Created with Inkscape (http://www.inkscape.org/) -->

<svg
   xmlns:dc="http://purl.org/dc/elements/1.1/"
   xmlns:cc="http://creativecommons.org/ns#"
   xmlns:rdf="http://www.w3.org/1999/02/22-rdf-syntax-ns#"
   xmlns:svg="http://www.w3.org/2000/svg"
   xmlns="http://www.w3.org/2000/svg"
   xmlns:sodipodi="http://sodipodi.sourceforge.net/DTD/sodipodi-0.dtd"
   xmlns:inkscape="http://www.inkscape.org/namespaces/inkscape"
   width="177.16534"
   height="106.29497"
   id="svg2"
   version="1.1"
   inkscape:version="0.91 r13725"
   sodipodi:docname="high_knees.svg">
  <defs
     id="defs4" />
  <sodipodi:namedview
     id="base"
     pagecolor="#ffffff"
     bordercolor="#666666"
     borderopacity="1.0"
     inkscape:pageopacity="0.0"
     inkscape:pageshadow="2"
     inkscape:zoom="1.6765071"
     inkscape:cx="162.79439"
     inkscape:cy="88.905855"
     inkscape:document-units="cm"
     inkscape:current-layer="layer1"
     showgrid="false"
     fit-margin-top="0"
     fit-margin-left="0"
     fit-margin-right="0"
     fit-margin-bottom="0"
     inkscape:window-width="1330"
     inkscape:window-height="747"
     inkscape:window-x="36"
     inkscape:window-y="21"
     inkscape:window-maximized="1"
     units="cm" />
  <metadata
     id="metadata7">
    <rdf:RDF>
      <cc:Work
         rdf:about="">
        <dc:format>image/svg+xml</dc:format>
        <dc:type
           rdf:resource="http://purl.org/dc/dcmitype/StillImage" />
        <dc:title></dc:title>
      </cc:Work>
    </rdf:RDF>
  </metadata>
  <g
     inkscape:label="Layer 1"
     inkscape:groupmode="layer"
     id="layer1"
     transform="translate(-32.228633,-1064.9324)">
    <path
       style="color:#000000;clip-rule:nonzero;display:inline;overflow:visible;visibility:visible;opacity:1;isolation:auto;mix-blend-mode:normal;color-interpolation:sRGB;color-interpolation-filters:linearRGB;solid-color:#000000;solid-opacity:1;fill:#000000;fill-opacity:1;fill-rule:evenodd;stroke:#000000;stroke-width:1.38269389;stroke-linecap:butt;stroke-linejoin:miter;stroke-miterlimit:4;stroke-dasharray:none;stroke-dashoffset:0;stroke-opacity:1;color-rendering:auto;image-rendering:auto;shape-rendering:auto;text-rendering:auto;enable-background:accumulate"
       d="m 386.10918,941.33682 c 0.31859,0 0.63721,0 0.95583,0 0.0455,0 0.10435,-0.032 0.13653,0 0.0322,0.032 -0.0322,0.1044 0,0.1366 0.0644,0.064 0.19169,-0.041 0.2731,0 0.0576,0.029 0.079,0.1077 0.13656,0.1365 0.0407,0.02 0.091,0 0.13652,0 0.091,0.045 0.18843,0.08 0.27311,0.1366 0.0536,0.036 0.0755,0.1162 0.13656,0.1365 0.0863,0.029 0.18477,-0.022 0.27308,0 0.6436,0.1609 -0.0974,0.1122 0.54619,0.2731 0.0883,0.022 0.18477,-0.022 0.2731,0 0.19746,0.049 0.35306,0.2087 0.54619,0.2731 0.0432,0.014 0.091,0 0.13653,0 0.091,0 0.18673,-0.029 0.27311,0 0.0611,0.02 0.079,0.1078 0.13655,0.1365 0.0814,0.041 0.19167,-0.041 0.27308,0 0.45288,0.4529 -0.12872,-0.064 0.27311,0.1366 0.0576,0.029 0.079,0.1078 0.13653,0.1365 0.0541,0.027 0.38174,-0.028 0.40966,0 0.0322,0.032 -0.0322,0.1044 0,0.1366 0.0322,0.032 0.091,0 0.13653,0 0.0455,0 0.091,0 0.13655,0 0.0455,0 0.091,0 0.13655,0 0.0455,0 0.0958,-0.02 0.13656,0 0.0576,0.029 0.079,0.1077 0.13652,0.1365 0.0416,0.021 0.34816,0 0.40964,0 0.0455,0 0.10438,0.032 0.13655,0 0.0644,-0.064 -0.0644,-0.2087 0,-0.2731 0.0322,-0.032 0.10438,0.032 0.13656,0 0.004,0 0,-0.3765 0,-0.4096 0,-0.4096 0,-0.8193 0,-1.2289 0,-0.071 0.018,-0.5103 0,-0.5462 -0.0288,-0.058 -0.10777,-0.079 -0.13656,-0.1366 -0.0204,-0.041 0,-0.091 0,-0.1365 0,-0.045 0,-0.091 0,-0.1366 0,-0.2275 0,-0.4551 0,-0.6827 0,-0.045 0.0204,-0.096 0,-0.1365 -0.0288,-0.058 -0.10774,-0.079 -0.13655,-0.1366 -0.0431,-0.086 0.0431,-0.5966 0,-0.6827 -0.0288,-0.058 -0.10775,-0.079 -0.13653,-0.1366 -0.0546,-0.1092 0.0546,-0.3004 0,-0.4096 -0.0288,-0.058 -0.10777,-0.079 -0.13655,-0.1366 -0.0407,-0.081 0.0407,-0.1916 0,-0.273 -0.0288,-0.058 -0.10777,-0.079 -0.13656,-0.1366 -0.0407,-0.081 0.0407,-0.1917 0,-0.2731 -0.0288,-0.058 -0.10774,-0.079 -0.13652,-0.1365 -0.073,-0.1459 0.0729,-0.1272 0,-0.2731 -0.0288,-0.058 -0.10777,-0.079 -0.13656,-0.1366 -0.0546,-0.1092 0.0546,-0.3004 0,-0.4096 -0.0576,-0.1152 -0.21551,-0.158 -0.2731,-0.2731 -0.0407,-0.081 0.0407,-0.1917 0,-0.2731 -0.0288,-0.058 -0.10775,-0.079 -0.13653,-0.1366 -0.0204,-0.041 0.0322,-0.1043 0,-0.1365 -0.0322,-0.032 -0.10438,0.032 -0.13656,0 0,-0.3641 0.0455,0.045 -0.13655,-0.1365 -0.0683,-0.068 0.0683,-0.3414 0,-0.4097 -0.0322,-0.032 -0.10435,0.032 -0.13655,0 -0.0322,-0.032 0.0203,-0.096 0,-0.1365 -0.0288,-0.058 -0.10775,-0.079 -0.13653,-0.1366 -0.0204,-0.041 0.0322,-0.1043 0,-0.1365 -0.0322,-0.032 -0.10438,0.032 -0.13655,0 -0.0644,-0.064 0.0644,-0.2088 0,-0.2731 -0.0322,-0.032 -0.10438,0.032 -0.13656,0 -0.0322,-0.032 0.0322,-0.1044 0,-0.1366 -0.0322,-0.032 -0.10435,0.032 -0.13655,0 -0.0322,-0.032 0.0322,-0.1043 0,-0.1365 -0.0322,-0.032 -0.10436,0.032 -0.13653,0 -0.28253,-0.2825 0.43171,0.011 -0.13655,-0.2731 -0.0407,-0.02 -0.10438,0.032 -0.13656,0 -0.0322,-0.032 0.0322,-0.1044 0,-0.1366 -0.0644,-0.064 -0.20873,0.064 -0.27308,0 -0.0322,-0.032 0.0322,-0.1043 0,-0.1365 -0.0322,-0.032 -0.0958,0.02 -0.13655,0 -0.0576,-0.029 -0.079,-0.1078 -0.13656,-0.1366 -0.0407,-0.02 -0.10435,0.032 -0.13655,0 -0.0322,-0.032 0.0322,-0.1043 0,-0.1365 -0.0322,-0.032 -0.0958,0.02 -0.13653,0 -0.0576,-0.029 -0.079,-0.1078 -0.13655,-0.1365 -0.0407,-0.02 -0.10435,0.032 -0.13655,0 -0.0322,-0.032 0.0322,-0.1044 0,-0.1366 -0.0644,-0.064 -0.20874,0.064 -0.27309,0 -0.0322,-0.032 0.0322,-0.1044 0,-0.1365 -0.0683,-0.068 -0.34137,0.068 -0.40966,0 -0.0322,-0.032 0.0322,-0.1044 0,-0.1366 -0.0373,-0.037 -0.4721,0.037 -0.54619,0 -0.0576,-0.029 -0.079,-0.1077 -0.13652,-0.1365 -0.0494,-0.025 -0.58776,0 -0.68275,0 -0.0331,0 -0.40525,0 -0.40963,0 -0.0322,0.032 0.0322,0.1043 0,0.1365 -0.0322,0.032 -0.10438,-0.032 -0.13655,0 -0.0322,0.032 0.0322,0.1044 0,0.1366 -0.0322,0.032 -0.10436,-0.032 -0.13656,0 -0.0322,0.032 0.0322,0.1043 0,0.1365 -0.0643,0.064 -0.2087,-0.064 -0.27308,0 -0.0322,0.032 0.0322,0.1044 0,0.1366 -0.0322,0.032 -0.10438,-0.032 -0.13655,0 -0.0322,0.032 0,0.091 0,0.1365 -0.0455,0 -0.0959,-0.02 -0.13656,0 -0.30191,0.151 -0.0424,0.085 -0.13652,0.2731 -0.0288,0.058 -0.10778,0.079 -0.13656,0.1365 -0.0204,0.041 0.0322,0.1044 0,0.1366 -0.0322,0.032 -0.10438,-0.032 -0.13655,0 -0.0644,0.064 0.0644,0.2087 0,0.2731 -0.0322,0.032 -0.10435,-0.032 -0.13656,0 -0.0643,0.064 0.0407,0.1917 0,0.2731 -0.0288,0.058 -0.10774,0.079 -0.13652,0.1365 -0.0204,0.041 0.0322,0.1044 0,0.1366 -0.0322,0.032 -0.10438,-0.032 -0.13656,0 -0.0644,0.064 0.0644,0.2087 0,0.2731 -0.0322,0.032 -0.10438,-0.032 -0.13655,0 -0.0683,0.068 0.0683,0.3413 0,0.4096 -0.0322,0.032 -0.10435,-0.032 -0.13655,0 -0.0329,0.033 0.0329,0.5133 0,0.5462 -0.0322,0.032 -0.10436,-0.032 -0.13653,0 -0.0479,0.048 0.0472,0.5884 0,0.6827 -0.0288,0.058 -0.10777,0.079 -0.13656,0.1366 -0.0177,0.035 0,0.7225 0,0.8193 0,0.6372 0,1.2744 0,1.9116 0,0.064 -0.006,0.6766 0,0.6828 0.0322,0.032 0.10436,-0.032 0.13656,0 0.0644,0.064 -0.0644,0.2087 0,0.273 0.0322,0.032 0.10435,-0.032 0.13653,0 0.0322,0.032 -0.0322,0.1044 0,0.1366 0.0322,0.032 0.10437,-0.032 0.13655,0 0.0322,0.032 -0.0204,0.096 0,0.1365 0.0576,0.1152 0.21552,0.158 0.27311,0.2731 0.0203,0.041 -0.0322,0.1044 0,0.1366 0.2825,0.2825 -0.011,-0.4317 0.27308,0.1365 0.0204,0.041 -0.0322,0.1044 0,0.1366 0.0322,0.032 0.0958,-0.02 0.13655,0 0.0576,0.029 0.0734,0.1239 0.13656,0.1365 0.17851,0.036 0.39468,-0.101 0.54618,0 0.16936,0.1129 0.15096,0.3834 0.27309,0.5462 0.0273,0.036 0.10435,-0.032 0.13655,0 0.0322,0.032 -0.0322,0.1044 0,0.1366 0.18206,0.182 0.13655,-0.2276 0.13655,0.1365"
       id="path6150"
       inkscape:connector-curvature="0" />
    <path
       style="color:#000000;clip-rule:nonzero;display:inline;overflow:visible;visibility:visible;opacity:1;isolation:auto;mix-blend-mode:normal;color-interpolation:sRGB;color-interpolation-filters:linearRGB;solid-color:#000000;solid-opacity:1;fill:none;fill-opacity:1;fill-rule:evenodd;stroke:#000000;stroke-width:1.38269389;stroke-linecap:butt;stroke-linejoin:miter;stroke-miterlimit:4;stroke-dasharray:none;stroke-dashoffset:0;stroke-opacity:1;color-rendering:auto;image-rendering:auto;shape-rendering:auto;text-rendering:auto;enable-background:accumulate"
       d="m 383.24169,949.66622 c 0.36412,-0.1821 0.71439,-0.395 1.09237,-0.5462 0.11336,-0.045 1.16414,0 1.36546,0 0.91032,0 1.82063,0 2.73095,0 0.18206,0 0.36412,0 0.54619,0 0.18206,0 0.36955,0.044 0.54618,0 0.19749,-0.049 0.35309,-0.2087 0.54619,-0.2731 0.23869,-0.08 1.47407,0.082 1.63857,0 0.11515,-0.058 0.15795,-0.2155 0.27308,-0.2731 0.0814,-0.041 0.18206,0 0.27311,0 0.091,0 0.18206,0 0.27308,0 0.45517,0 0.91031,0 1.36548,0"
       id="path6152"
       inkscape:connector-curvature="0" />
    <path
       style="color:#000000;clip-rule:nonzero;display:inline;overflow:visible;visibility:visible;opacity:1;isolation:auto;mix-blend-mode:normal;color-interpolation:sRGB;color-interpolation-filters:linearRGB;solid-color:#000000;solid-opacity:1;fill:none;fill-opacity:1;fill-rule:evenodd;stroke:#000000;stroke-width:1.38269389;stroke-linecap:butt;stroke-linejoin:miter;stroke-miterlimit:4;stroke-dasharray:none;stroke-dashoffset:0;stroke-opacity:1;color-rendering:auto;image-rendering:auto;shape-rendering:auto;text-rendering:auto;enable-background:accumulate"
       d="m 393.89235,947.75452 c 0.18207,-0.3641 0.395,-0.7144 0.54619,-1.0923 0.0676,-0.1691 -0.0814,-0.3834 0,-0.5462 0.0576,-0.1152 0.21552,-0.158 0.27308,-0.2731 0.0407,-0.081 -0.0407,-0.1917 0,-0.2731 0.0576,-0.1152 0.21555,-0.158 0.27311,-0.2731 0.0407,-0.081 -0.0407,-0.1917 0,-0.2731 0.11513,-0.2303 0.43103,-0.3159 0.54619,-0.5462 0.0407,-0.081 0,-0.1821 0,-0.2731 0.091,-0.1821 0.16017,-0.3768 0.27308,-0.5462 0.0714,-0.1071 0.21552,-0.1579 0.27311,-0.2731 0.0407,-0.081 -0.0288,-0.1867 0,-0.2731 0.0644,-0.1931 0.18206,-0.3641 0.27308,-0.5462 0.091,-0.182 0.1602,-0.3768 0.27311,-0.5461 0.0714,-0.1072 0.20168,-0.166 0.27308,-0.2731 0.11291,-0.1694 0.16019,-0.3769 0.27311,-0.5462 0.0714,-0.1071 0.21551,-0.158 0.27308,-0.2731 0.0407,-0.081 -0.0407,-0.1917 0,-0.2731 0.0576,-0.1152 0.21551,-0.158 0.2731,-0.2731 0.0407,-0.081 -0.0407,-0.1917 0,-0.2731 0.0576,-0.1151 0.21552,-0.1579 0.27309,-0.2731 0.0407,-0.081 -0.0407,-0.1917 0,-0.2731 0.0576,-0.1151 0.21551,-0.1579 0.2731,-0.2731 0.0407,-0.081 -0.0288,-0.1867 0,-0.2731 0.0643,-0.1931 0.20871,-0.3531 0.27308,-0.5462 0.0288,-0.086 -0.0407,-0.1916 0,-0.2731 0.0576,-0.1151 0.20169,-0.1659 0.27311,-0.2731 0.11291,-0.1693 0.16017,-0.3768 0.27308,-0.5461 0.0714,-0.1072 0.21552,-0.158 0.27311,-0.2731 0.0407,-0.082 -0.0407,-0.1917 0,-0.2731 0.0576,-0.1152 0.21552,-0.158 0.27308,-0.2731 0.0814,-0.1629 -0.0814,-0.3834 0,-0.5462 0.0576,-0.1152 0.21552,-0.158 0.27311,-0.2731 0.0407,-0.081 -0.0407,-0.1917 0,-0.2731 0.11513,-0.2303 0.43103,-0.3159 0.54619,-0.5462 0.0407,-0.081 -0.0288,-0.1867 0,-0.2731 0.65936,-1.9781 -0.0788,0.4306 0.54619,-0.8193 0.0407,-0.081 -0.0407,-0.1916 0,-0.2731 0.11513,-0.2302 0.43103,-0.3159 0.54619,-0.5461 0.0407,-0.081 -0.0407,-0.1917 0,-0.2731 0.0576,-0.1152 0.21551,-0.158 0.27308,-0.2731 0.0407,-0.081 -0.0407,-0.1917 0,-0.2731 0.0576,-0.1152 0.21551,-0.158 0.2731,-0.2731 0.0407,-0.081 -0.0407,-0.1917 0,-0.2731 0.0576,-0.1152 0.21552,-0.158 0.27309,-0.2731 0.0407,-0.081 -0.0644,-0.2087 0,-0.2731 0.0644,-0.064 0.19166,0.041 0.2731,0 0.60381,-0.3019 0.0847,-0.1695 0.27308,-0.5462 0.11516,-0.2303 0.43104,-0.3159 0.54619,-0.5462 0.0407,-0.081 -0.0407,-0.1917 0,-0.2731 0.11516,-0.2303 0.43104,-0.3159 0.54619,-0.5462 0.0407,-0.081 -0.0644,-0.2087 0,-0.2731 0.0644,-0.064 0.20873,0.064 0.27308,0 0.0644,-0.064 -0.0407,-0.1916 0,-0.273 0.0576,-0.1152 0.21555,-0.158 0.27311,-0.2731 0.0407,-0.082 -0.0644,-0.2088 0,-0.2731 0.0644,-0.064 0.20873,0.064 0.27308,0 0.0644,-0.064 -0.0407,-0.1917 0,-0.2731 0.11516,-0.2303 0.43106,-0.3159 0.54619,-0.5462 0.0407,-0.081 -0.0407,-0.1917 0,-0.2731 0.0576,-0.1152 0.21554,-0.158 0.27311,-0.2731 0.0407,-0.081 -0.0644,-0.2087 0,-0.2731 0.0644,-0.064 0.20873,0.064 0.27308,0 0.12875,-0.1287 -0.12873,-0.4175 0,-0.5462 0.0644,-0.064 0.20873,0.064 0.27311,0 0.12872,-0.1287 -0.12875,-0.4174 0,-0.5462 0.0644,-0.064 0.20873,0.064 0.27308,0 0.12875,-0.1287 -0.12873,-0.4174 0,-0.5462 0.0644,-0.064 0.20873,0.064 0.27311,0 0.0644,-0.064 -0.0644,-0.2087 0,-0.2731 0.0644,-0.064 0.20873,0.064 0.27308,0 0.0558,-0.056 -0.0541,-0.711 0,-0.8192 0.0576,-0.1152 0.21551,-0.158 0.2731,-0.2731 0.0407,-0.082 -0.0644,-0.2088 0,-0.2731 0.0644,-0.064 0.20874,0.064 0.27309,0 0.12875,-0.1288 -0.12873,-0.4175 0,-0.5462 0.0644,-0.064 0.20873,0.064 0.2731,0 0.13656,-0.1366 -0.13655,-0.6828 0,-0.8193 0.0644,-0.064 0.20874,0.064 0.27308,0 0.12876,-0.1287 -0.0814,-0.3833 0,-0.5462 0.0576,-0.1151 0.21552,-0.1579 0.27311,-0.2731 0.0814,-0.1628 -0.0814,-0.3833 0,-0.5462 0.0576,-0.1151 0.21552,-0.1579 0.27308,-0.2731 0.0814,-0.1628 -0.12872,-0.4174 0,-0.5462 0.0644,-0.064 0.20874,-0.064 0.27311,0 0.0643,0.064 0,0.1821 0,0.2731"
       id="path6154"
       inkscape:connector-curvature="0" />
    <path
       style="color:#000000;clip-rule:nonzero;display:inline;overflow:visible;visibility:visible;opacity:1;isolation:auto;mix-blend-mode:normal;color-interpolation:sRGB;color-interpolation-filters:linearRGB;solid-color:#000000;solid-opacity:1;fill:none;fill-opacity:1;fill-rule:evenodd;stroke:#000000;stroke-width:1.38269389;stroke-linecap:butt;stroke-linejoin:miter;stroke-miterlimit:4;stroke-dasharray:none;stroke-dashoffset:0;stroke-opacity:1;color-rendering:auto;image-rendering:auto;shape-rendering:auto;text-rendering:auto;enable-background:accumulate"
       d="m 382.42239,948.84692 c -0.49656,-0.7808 0.60629,-0.9394 0.8193,-1.3655 0.0814,-0.1628 -0.0814,-0.3833 0,-0.5461 0.0576,-0.1152 0.21551,-0.158 0.27308,-0.2731 0.0814,-0.1629 -0.12873,-0.4175 0,-0.5462 0.0644,-0.064 0.20873,0.064 0.27311,0 0.13655,-0.1366 -0.13656,-0.6828 0,-0.8193 0.0644,-0.064 0.20873,0.064 0.27308,0 0.0644,-0.064 -0.0407,-0.1917 0,-0.2731 0.0576,-0.1152 0.21554,-0.158 0.2731,-0.2731 0.0407,-0.081 -0.0288,-0.1867 0,-0.2731 0.0644,-0.1931 0.20874,-0.3531 0.27309,-0.5462 0.0288,-0.086 -0.0407,-0.1917 0,-0.2731 0.0576,-0.1151 0.21554,-0.1579 0.2731,-0.2731 0.0407,-0.081 -0.0407,-0.1916 0,-0.2731 0.0576,-0.1151 0.21552,-0.1579 0.27308,-0.2731 0.0407,-0.081 -0.0407,-0.1916 0,-0.2731 0.0576,-0.1151 0.21552,-0.1579 0.27311,-0.273 0.10923,-0.2185 -0.10923,-0.6009 0,-0.8193 0.0576,-0.1152 0.21552,-0.158 0.27308,-0.2731 0.0407,-0.081 0,-0.1821 0,-0.2731 0.091,-0.1821 0.1602,-0.3768 0.27311,-0.5462 0.4166,-0.6249 0.21617,0.1708 0.54619,-0.8193 0.0288,-0.086 -0.0288,-0.1867 0,-0.2731 0.091,-0.182 0.18206,-0.3641 0.27308,-0.5462 0,-0.091 -0.0288,-0.1867 0,-0.2731 0.0644,-0.1931 0.20873,-0.353 0.27311,-0.5462 0.0288,-0.086 -0.0288,-0.1867 0,-0.273 0.65936,-1.9782 -0.0788,0.4305 0.54619,-0.8193 0.0407,-0.081 0,-0.1821 0,-0.2731 0.091,-0.1821 0.16017,-0.3768 0.27308,-0.5462 0.0714,-0.1071 0.2324,-0.151 0.27311,-0.2731 0.0576,-0.1727 -0.0576,-0.3735 0,-0.5462 0.0407,-0.1221 0.23237,-0.151 0.27308,-0.2731 0.0576,-0.1727 -0.0576,-0.3735 0,-0.5462 0.0814,-0.2442 0.43103,-0.3159 0.54619,-0.5462 0.0407,-0.081 -0.0407,-0.1916 0,-0.2731 0.0576,-0.1151 0.21551,-0.1579 0.2731,-0.2731 0.0407,-0.081 -0.0407,-0.1916 0,-0.273 0.0576,-0.1152 0.21552,-0.158 0.27308,-0.2731 0.0407,-0.082 -0.0407,-0.1917 0,-0.2731 0.0576,-0.1152 0.21552,-0.158 0.27311,-0.2731 0.0814,-0.1629 -0.12875,-0.4175 0,-0.5462 0.0643,-0.064 0.20871,0.064 0.27308,0 0.0644,-0.064 -0.0407,-0.1917 0,-0.2731 0.0576,-0.1152 0.21552,-0.158 0.27311,-0.2731 0.0407,-0.081 -0.0644,-0.2087 0,-0.2731 0.0644,-0.064 0.20871,0.064 0.27308,0 0.0644,-0.064 -0.0407,-0.1917 0,-0.2731 0.16385,-0.3277 0.65542,-0.4916 0.8193,-0.8193 0.0407,-0.081 -0.0407,-0.1916 0,-0.2731 0.0729,-0.1458 0.67549,-0.6755 0.81927,-0.8192 0.18206,-0.1821 0.40337,-0.332 0.54619,-0.5462 0.11291,-0.1694 0.16019,-0.3769 0.27308,-0.5462 0.15711,-0.2357 0.60597,-0.606 0.81929,-0.8193 0.091,-0.091 0.21552,-0.158 0.27309,-0.2731 0.0407,-0.081 -0.0407,-0.1917 0,-0.2731 0.0576,-0.1151 0.21554,-0.1579 0.2731,-0.2731 0.0814,-0.1628 -0.12875,-0.4174 0,-0.5462 0.0644,-0.064 0.20873,0.064 0.27308,0 0.12876,-0.1287 -0.12872,-0.4174 0,-0.5462 0.0644,-0.064 0.20874,0.064 0.27311,0 0.0644,-0.064 -0.0407,-0.1916 0,-0.2731 0.0576,-0.1151 0.18206,-0.182 0.27308,-0.2731 0.091,-0.091 0.15795,-0.2155 0.27311,-0.273 0.0814,-0.041 0.20873,0.064 0.27308,0 0.0644,-0.064 -0.0407,-0.1917 0,-0.2731 0.0576,-0.1152 0.18206,-0.1821 0.27311,-0.2731 0.091,-0.091 0.18206,-0.1821 0.27308,-0.2731 0.091,-0.091 0.21552,-0.158 0.27311,-0.2731 0.0407,-0.081 -0.0407,-0.1917 0,-0.2731 0.11513,-0.2303 0.43103,-0.3159 0.54619,-0.5462 0.0407,-0.081 -0.0644,-0.2087 0,-0.2731 0.0644,-0.064 0.27308,-0.091 0.27308,0 0,0.091 -0.27308,0.091 -0.27308,0 0,-0.1287 0.27308,-0.1444 0.27308,-0.2731 0,-0.091 -0.20871,-0.064 -0.27308,0 -0.0644,0.064 0,0.1821 0,0.2731"
       id="path6156"
       inkscape:connector-curvature="0" />
    <path
       style="color:#000000;clip-rule:nonzero;display:inline;overflow:visible;visibility:visible;opacity:1;isolation:auto;mix-blend-mode:normal;color-interpolation:sRGB;color-interpolation-filters:linearRGB;solid-color:#000000;solid-opacity:1;fill:none;fill-opacity:1;fill-rule:evenodd;stroke:#000000;stroke-width:1.38269389;stroke-linecap:butt;stroke-linejoin:miter;stroke-miterlimit:4;stroke-dasharray:none;stroke-dashoffset:0;stroke-opacity:1;color-rendering:auto;image-rendering:auto;shape-rendering:auto;text-rendering:auto;enable-background:accumulate"
       d="m 387.88428,945.02362 c 0,0.3641 -0.0883,0.7391 0,1.0924 0.0222,0.088 0.20873,-0.064 0.27311,0 0.0845,0.085 -0.0846,1.2809 0,1.3654 0.0643,0.064 0.2087,-0.064 0.27308,0 0.0123,0.012 0,1.2367 0,1.3655 0,0.091 -0.0644,0.2087 0,0.2731 0.0644,0.064 0.20873,-0.064 0.2731,0 0.0643,0.064 0,0.1821 0,0.2731 0,0.4552 0,0.9103 0,1.3655 0,0.091 -0.0644,0.2087 0,0.2731 0.0643,0.064 0.20871,-0.064 0.27309,0 0.009,0.01 0,0.753 0,0.8192 0,0.8193 0,1.6386 0,2.4579 0,0.2312 -0.0489,0.9456 0,1.0924 0.0407,0.1221 0.21551,0.1579 0.2731,0.2731 0.0407,0.081 0,0.182 0,0.2731 0,0.091 0,0.182 0,0.273 0,0.3266 -0.0594,1.4604 0,1.6386 0.0643,0.1931 0.22371,0.3487 0.27308,0.5462 0.0662,0.2649 0,0.5462 0,0.8193 0,0.5462 0,1.0924 0,1.6385 0,0.065 -0.0306,1.0312 0,1.0924 0.0576,0.1152 0.21552,0.158 0.27311,0.2731 0.0829,0.1658 -0.0829,1.4728 0,1.6386 0.0576,0.1151 0.21552,0.1579 0.27308,0.2731 0.0861,0.1723 -0.0861,1.1932 0,1.3654 0.0576,0.1152 0.21552,0.158 0.27311,0.2731 0.0866,0.1733 -0.0887,1.1881 0,1.3655 0.0576,0.1152 0.21552,0.158 0.27308,0.2731 0.0813,0.1626 -0.0766,1.1355 0,1.3655 0.0644,0.1931 0.20873,0.3531 0.27311,0.5462 0.0808,0.2423 -0.0894,1.1866 0,1.3654 0.0576,0.1152 0.21552,0.158 0.27308,0.2731 0.0407,0.081 0,0.1821 0,0.2731 0,0.091 0,0.1821 0,0.2731 0,0.4552 0,0.9103 0,1.3655"
       id="path6158"
       inkscape:connector-curvature="0" />
    <g
       id="g6490">
      <path
         style="color:#000000;clip-rule:nonzero;display:inline;overflow:visible;visibility:visible;opacity:1;isolation:auto;mix-blend-mode:normal;color-interpolation:sRGB;color-interpolation-filters:linearRGB;solid-color:#000000;solid-opacity:1;fill:#000000;fill-opacity:1;fill-rule:evenodd;stroke:#000000;stroke-width:1.38269389;stroke-linecap:butt;stroke-linejoin:miter;stroke-miterlimit:4;stroke-dasharray:none;stroke-dashoffset:0;stroke-opacity:1;color-rendering:auto;image-rendering:auto;shape-rendering:auto;text-rendering:auto;enable-background:accumulate"
         d="m 90.919841,1082.5375 c -4.299311,-0.1346 -2.049712,-9.0609 -3.329906,-12.6853 6.13333,-8.3251 15.546545,2.3097 11.099681,9.514 -1.429929,2.5115 -4.584931,1.9096 -6.818376,3.1713"
         id="path6378"
         inkscape:connector-curvature="0" />
      <path
         style="color:#000000;clip-rule:nonzero;display:inline;overflow:visible;visibility:visible;opacity:1;isolation:auto;mix-blend-mode:normal;color-interpolation:sRGB;color-interpolation-filters:linearRGB;solid-color:#000000;solid-opacity:1;fill:none;fill-opacity:1;fill-rule:evenodd;stroke:#000000;stroke-width:1.38269389;stroke-linecap:butt;stroke-linejoin:miter;stroke-miterlimit:4;stroke-dasharray:none;stroke-dashoffset:0;stroke-opacity:1;color-rendering:auto;image-rendering:auto;shape-rendering:auto;text-rendering:auto;enable-background:accumulate"
         d="m 102.97092,1088.2459 c -4.176601,-0.2455 -8.282349,-0.918 -12.368213,-1.7442"
         id="path6380"
         inkscape:connector-curvature="0" />
      <path
         style="color:#000000;clip-rule:nonzero;display:inline;overflow:visible;visibility:visible;opacity:1;isolation:auto;mix-blend-mode:normal;color-interpolation:sRGB;color-interpolation-filters:linearRGB;solid-color:#000000;solid-opacity:1;fill:none;fill-opacity:1;fill-rule:evenodd;stroke:#000000;stroke-width:1.38269389;stroke-linecap:butt;stroke-linejoin:miter;stroke-miterlimit:4;stroke-dasharray:none;stroke-dashoffset:0;stroke-opacity:1;color-rendering:auto;image-rendering:auto;shape-rendering:auto;text-rendering:auto;enable-background:accumulate"
         d="m 91.554106,1087.9288 c -1.396751,3.7756 2.041255,14.4811 -1.902801,14.7467 -3.636971,-1.7436 -7.697501,-1.7209 -11.099678,-4.2813"
         id="path6382"
         inkscape:connector-curvature="0" />
      <path
         style="color:#000000;clip-rule:nonzero;display:inline;overflow:visible;visibility:visible;opacity:1;isolation:auto;mix-blend-mode:normal;color-interpolation:sRGB;color-interpolation-filters:linearRGB;solid-color:#000000;solid-opacity:1;fill:none;fill-opacity:1;fill-rule:evenodd;stroke:#000000;stroke-width:1.38269389;stroke-linecap:butt;stroke-linejoin:miter;stroke-miterlimit:4;stroke-dasharray:none;stroke-dashoffset:0;stroke-opacity:1;color-rendering:auto;image-rendering:auto;shape-rendering:auto;text-rendering:auto;enable-background:accumulate"
         d="m 103.76376,1088.7216 c 1.99256,6.6209 10.07285,11.573 6.22254,19.2338 -0.2792,4.2388 -1.80369,8.3955 -2.89264,12.321"
         id="path6384"
         inkscape:connector-curvature="0" />
      <path
         style="color:#000000;clip-rule:nonzero;display:inline;overflow:visible;visibility:visible;opacity:1;isolation:auto;mix-blend-mode:normal;color-interpolation:sRGB;color-interpolation-filters:linearRGB;solid-color:#000000;solid-opacity:1;fill:none;fill-opacity:1;fill-rule:evenodd;stroke:#000000;stroke-width:1.38269389;stroke-linecap:butt;stroke-linejoin:miter;stroke-miterlimit:4;stroke-dasharray:none;stroke-dashoffset:0;stroke-opacity:1;color-rendering:auto;image-rendering:auto;shape-rendering:auto;text-rendering:auto;enable-background:accumulate"
         d="m 96.628246,1087.2945 c 0.580901,7.9907 2.581956,15.9311 2.211865,24.0861 0.07399,1.7518 0.08236,3.5291 -0.309061,5.2488"
         id="path6388"
         inkscape:connector-curvature="0" />
      <path
         style="color:#000000;clip-rule:nonzero;display:inline;overflow:visible;visibility:visible;opacity:1;isolation:auto;mix-blend-mode:normal;color-interpolation:sRGB;color-interpolation-filters:linearRGB;solid-color:#000000;solid-opacity:1;fill:none;fill-opacity:1;fill-rule:evenodd;stroke:#000000;stroke-width:1.38269389;stroke-linecap:butt;stroke-linejoin:miter;stroke-miterlimit:4;stroke-dasharray:none;stroke-dashoffset:0;stroke-opacity:1;color-rendering:auto;image-rendering:auto;shape-rendering:auto;text-rendering:auto;enable-background:accumulate"
         d="m 100.75099,1117.8979 c -7.084122,2.9422 -14.263654,5.7801 -21.794926,7.4608 1.707239,5.4301 6.373775,11.1982 9.222237,16.7626 3.760848,4.3362 0.886254,8.8995 -0.905497,13.357"
         id="path6390"
         inkscape:connector-curvature="0" />
      <path
         style="color:#000000;clip-rule:nonzero;display:inline;overflow:visible;visibility:visible;opacity:1;isolation:auto;mix-blend-mode:normal;color-interpolation:sRGB;color-interpolation-filters:linearRGB;solid-color:#000000;solid-opacity:1;fill:none;fill-opacity:1;fill-rule:evenodd;stroke:#000000;stroke-width:1.38269389;stroke-linecap:butt;stroke-linejoin:miter;stroke-miterlimit:4;stroke-dasharray:none;stroke-dashoffset:0;stroke-opacity:1;color-rendering:auto;image-rendering:auto;shape-rendering:auto;text-rendering:auto;enable-background:accumulate"
         d="m 93.139777,1118.5322 c -1.579927,7.1391 -3.532734,14.1566 -6.781213,20.7355 0.200252,5.9562 5.689155,12.1547 7.574047,18.4305 4.922253,6.3273 -3.656279,5.7819 -6.818376,9.3555"
         id="path6392"
         inkscape:connector-curvature="0" />
      <path
         style="color:#000000;clip-rule:nonzero;display:inline;overflow:visible;visibility:visible;opacity:1;isolation:auto;mix-blend-mode:normal;color-interpolation:sRGB;color-interpolation-filters:linearRGB;solid-color:#000000;solid-opacity:1;fill:#000000;fill-opacity:1;fill-rule:evenodd;stroke:#000000;stroke-width:1.38269389;stroke-linecap:butt;stroke-linejoin:miter;stroke-miterlimit:4;stroke-dasharray:none;stroke-dashoffset:0;stroke-opacity:1;color-rendering:auto;image-rendering:auto;shape-rendering:auto;text-rendering:auto;enable-background:accumulate"
         d="m 147.20132,1068.4611 c 5.96915,-9.2369 18.03475,2.926 9.80454,9.2052 -4.39749,3.2153 -9.71281,5.0196 -10.14091,-2.1414 -0.0607,-1.5014 -2.51755,-7.3058 0.33637,-7.0638 z"
         id="path6396"
         inkscape:connector-curvature="0" />
      <path
         style="color:#000000;clip-rule:nonzero;display:inline;overflow:visible;visibility:visible;opacity:1;isolation:auto;mix-blend-mode:normal;color-interpolation:sRGB;color-interpolation-filters:linearRGB;solid-color:#000000;solid-opacity:1;fill:none;fill-opacity:1;fill-rule:evenodd;stroke:#000000;stroke-width:1.38269389;stroke-linecap:butt;stroke-linejoin:miter;stroke-miterlimit:4;stroke-dasharray:none;stroke-dashoffset:0;stroke-opacity:1;color-rendering:auto;image-rendering:auto;shape-rendering:auto;text-rendering:auto;enable-background:accumulate"
         d="m 162.33802,1084.4947 c -3.59825,-0.01 -7.19,-0.4446 -10.76387,-0.6727"
         id="path6398"
         inkscape:connector-curvature="0" />
      <path
         style="color:#000000;clip-rule:nonzero;display:inline;overflow:visible;visibility:visible;opacity:1;isolation:auto;mix-blend-mode:normal;color-interpolation:sRGB;color-interpolation-filters:linearRGB;solid-color:#000000;solid-opacity:1;fill:none;fill-opacity:1;fill-rule:evenodd;stroke:#000000;stroke-width:1.38269389;stroke-linecap:butt;stroke-linejoin:miter;stroke-miterlimit:4;stroke-dasharray:none;stroke-dashoffset:0;stroke-opacity:1;color-rendering:auto;image-rendering:auto;shape-rendering:auto;text-rendering:auto;enable-background:accumulate"
         d="m 163.23502,1085.0554 c -2.17108,5.4472 -2.19895,13.8329 -6.25838,17.6137 -5.23367,-1.779 -10.62616,-3.0516 -15.83,-4.9438"
         id="path6400"
         inkscape:connector-curvature="0" />
      <path
         style="color:#000000;clip-rule:nonzero;display:inline;overflow:visible;visibility:visible;opacity:1;isolation:auto;mix-blend-mode:normal;color-interpolation:sRGB;color-interpolation-filters:linearRGB;solid-color:#000000;solid-opacity:1;fill:none;fill-opacity:1;fill-rule:evenodd;stroke:#000000;stroke-width:1.38269389;stroke-linecap:butt;stroke-linejoin:miter;stroke-miterlimit:4;stroke-dasharray:none;stroke-dashoffset:0;stroke-opacity:1;color-rendering:auto;image-rendering:auto;shape-rendering:auto;text-rendering:auto;enable-background:accumulate"
         d="m 150.78928,1084.719 c 1.38658,3.5567 4.94952,10.8436 3.89928,12.5441 -4.26216,-1.0446 -8.68218,-0.9206 -12.9813,-1.7802"
         id="path6402"
         inkscape:connector-curvature="0" />
      <path
         style="color:#000000;clip-rule:nonzero;display:inline;overflow:visible;visibility:visible;opacity:1;isolation:auto;mix-blend-mode:normal;color-interpolation:sRGB;color-interpolation-filters:linearRGB;solid-color:#000000;solid-opacity:1;fill:none;fill-opacity:1;fill-rule:evenodd;stroke:#000000;stroke-width:1.38269389;stroke-linecap:butt;stroke-linejoin:miter;stroke-miterlimit:4;stroke-dasharray:none;stroke-dashoffset:0;stroke-opacity:1;color-rendering:auto;image-rendering:auto;shape-rendering:auto;text-rendering:auto;enable-background:accumulate"
         d="m 156.28334,1084.9432 c -0.52441,5.7065 0.15835,11.6236 -0.23044,17.4212 -0.28921,4.202 -0.25942,8.7057 -1.00292,12.7401"
         id="path6404"
         inkscape:connector-curvature="0" />
      <path
         style="color:#000000;clip-rule:nonzero;display:inline;overflow:visible;visibility:visible;opacity:1;isolation:auto;mix-blend-mode:normal;color-interpolation:sRGB;color-interpolation-filters:linearRGB;solid-color:#000000;solid-opacity:1;fill:none;fill-opacity:1;fill-rule:evenodd;stroke:#000000;stroke-width:1.38269389;stroke-linecap:butt;stroke-linejoin:miter;stroke-miterlimit:4;stroke-dasharray:none;stroke-dashoffset:0;stroke-opacity:1;color-rendering:auto;image-rendering:auto;shape-rendering:auto;text-rendering:auto;enable-background:accumulate"
         d="m 154.48936,1114.9924 c -6.20397,-0.7778 -12.50673,1.6385 -18.63036,2.6947 -4.03635,0.9806 -11.73295,1.8744 -4.50401,5.6456 3.18917,5.3445 8.18177,10.9706 9.81299,16.4377 -1.9925,2.5934 -2.98673,5.8555 -4.16991,8.8591"
         id="path6406"
         inkscape:connector-curvature="0" />
      <path
         style="color:#000000;clip-rule:nonzero;display:inline;overflow:visible;visibility:visible;opacity:1;isolation:auto;mix-blend-mode:normal;color-interpolation:sRGB;color-interpolation-filters:linearRGB;solid-color:#000000;solid-opacity:1;fill:none;fill-opacity:1;fill-rule:evenodd;stroke:#000000;stroke-width:1.38269389;stroke-linecap:butt;stroke-linejoin:miter;stroke-miterlimit:4;stroke-dasharray:none;stroke-dashoffset:0;stroke-opacity:1;color-rendering:auto;image-rendering:auto;shape-rendering:auto;text-rendering:auto;enable-background:accumulate"
         d="m 154.93786,1117.0106 c 2.19875,8.9923 0.74788,18.3 2.37713,27.3904 -0.55073,7.4679 6.21376,18.3078 -0.2995,23.3496 -2.99158,0.5176 -5.65306,1.8964 -8.35656,3.1915"
         id="path6408"
         inkscape:connector-curvature="0" />
    </g>
  </g>
</svg>
